<svg width="448" height="448" viewBox="0 0 448 448" fill="none" xmlns="http://www.w3.org/2000/svg">
<path d="M49.2791 270.532L57.034 265.513C57.034 265.513 60.7918 245.52 58.0008 227.841C54.0772 202.985 37.1535 194.412 31.007 196.883C24.8604 199.353 23.4161 206.716 34.5166 221.078C41.0655 229.552 49.4888 247.464 49.2791 270.532Z" fill="#12B76A"/>
<g opacity="0.3">
<path d="M49.2791 270.532L57.034 265.513C57.034 265.513 60.7918 245.52 58.0008 227.841C54.0772 202.985 37.1535 194.412 31.007 196.883C24.8604 199.353 23.4161 206.716 34.5166 221.078C41.0655 229.552 49.4888 247.464 49.2791 270.532Z" fill="white"/>
</g>
<path d="M52.0988 260.66C52.0728 260.66 52.0477 260.657 52.0218 260.654C51.718 260.612 51.5057 260.333 51.5487 260.029C54.7644 236.759 45.4066 211.264 34.892 200.989C34.6734 200.776 34.6689 200.424 34.8831 200.205C35.0972 199.988 35.4484 199.982 35.6671 200.196C46.3734 210.658 55.9104 236.568 52.6463 260.18C52.6095 260.458 52.3712 260.66 52.0988 260.66Z" fill="white"/>
<path d="M29.7615 283.151C28.5994 283.819 25.2887 281.262 24.3712 280.647C22.7996 279.592 21.5273 278.1 20.6815 276.412C19.6977 274.447 19.4495 272.341 19.7577 270.166C19.9181 269.039 20.2335 267.941 20.548 266.846C20.8571 265.772 21.1653 264.697 21.4744 263.623C21.7791 262.563 22.0873 261.466 21.9466 260.372C21.6644 258.168 19.7075 256.623 17.929 255.291C15.9622 253.818 13.9131 251.874 13.9247 249.22C13.9328 247.172 14.9937 245.27 16.2624 243.664C17.5311 242.056 19.0373 240.637 20.1842 238.941C21.0094 237.72 21.6536 236.285 21.5201 234.817C21.4368 233.905 21.0587 233.046 20.6223 232.241C19.6851 230.513 18.4486 228.931 17.8026 227.074C17.1566 225.218 17.248 222.909 18.6968 221.581C19.8858 220.49 21.6536 220.338 23.2628 220.445C24.752 220.543 26.2071 221.215 27.5099 221.94C31.7229 224.283 34.1277 229.273 38.5988 231.076C40.3236 231.771 42.2123 231.923 44.0106 232.398C45.808 232.873 47.6412 233.791 48.4736 235.454C50.1151 238.731 47.0696 242.771 48.2227 246.251C49.2433 249.33 52.2359 250.509 53.9159 253.284C54.6506 254.498 54.82 255.901 54.7017 257.315C54.501 259.708 54.1507 261.465 53.002 264.126C52.0522 266.326 49.28 270.533 49.28 270.533C49.28 270.533 29.9398 283.049 29.7615 283.151Z" fill="#12B76A"/>
<g opacity="0.65">
<path d="M29.7615 283.151C28.5994 283.819 25.2887 281.262 24.3712 280.647C22.7996 279.592 21.5273 278.1 20.6815 276.412C19.6977 274.447 19.4495 272.341 19.7577 270.166C19.9181 269.039 20.2335 267.941 20.548 266.846C20.8571 265.772 21.1653 264.697 21.4744 263.623C21.7791 262.563 22.0873 261.466 21.9466 260.372C21.6644 258.168 19.7075 256.623 17.929 255.291C15.9622 253.818 13.9131 251.874 13.9247 249.22C13.9328 247.172 14.9937 245.27 16.2624 243.664C17.5311 242.056 19.0373 240.637 20.1842 238.941C21.0094 237.72 21.6536 236.285 21.5201 234.817C21.4368 233.905 21.0587 233.046 20.6223 232.241C19.6851 230.513 18.4486 228.931 17.8026 227.074C17.1566 225.218 17.248 222.909 18.6968 221.581C19.8858 220.49 21.6536 220.338 23.2628 220.445C24.752 220.543 26.2071 221.215 27.5099 221.94C31.7229 224.283 34.1277 229.273 38.5988 231.076C40.3236 231.771 42.2123 231.923 44.0106 232.398C45.808 232.873 47.6412 233.791 48.4736 235.454C50.1151 238.731 47.0696 242.771 48.2227 246.251C49.2433 249.33 52.2359 250.509 53.9159 253.284C54.6506 254.498 54.82 255.901 54.7017 257.315C54.501 259.708 54.1507 261.465 53.002 264.126C52.0522 266.326 49.28 270.533 49.28 270.533C49.28 270.533 29.9398 283.049 29.7615 283.151Z" fill="white"/>
</g>
<path d="M41.0198 276.542C41.0126 276.542 41.0054 276.542 41.0054 276.542C40.708 276.53 40.484 276.285 40.4947 275.996C41.362 255.167 31.5482 232.173 24.4115 225.493C24.2001 225.295 24.1893 224.963 24.3873 224.751C24.5862 224.539 24.9169 224.53 25.1292 224.727C32.4092 231.542 42.422 254.917 41.5439 276.039C41.5323 276.322 41.2993 276.542 41.0198 276.542Z" fill="white"/>
<path d="M37.6714 251.084C37.6203 251.084 37.5675 251.077 37.5164 251.061C30.8251 248.992 22.4842 248.627 22.4018 248.625C22.1115 248.612 21.8875 248.368 21.8991 248.078C21.9117 247.79 22.1303 247.561 22.4448 247.576C22.5299 247.579 31.0025 247.949 37.8264 250.059C38.1033 250.144 38.2583 250.438 38.1723 250.715C38.1024 250.94 37.8954 251.084 37.6714 251.084Z" fill="white"/>
<path d="M227.297 434.578C341.604 434.578 434.269 381.079 434.269 315.085C434.269 249.09 341.604 195.591 227.297 195.591C112.99 195.591 20.3258 249.09 20.3258 315.085C20.3258 381.079 112.99 434.578 227.297 434.578Z" fill="#F9FAFB"/>
<path d="M117.308 264.151C161.144 238.842 232.215 238.842 276.05 264.151C313.207 285.604 318.852 318.352 293.015 343.248L389.47 398.231C395.349 401.625 395.349 407.128 389.47 410.522L380.802 415.526C374.923 418.92 365.553 418.659 359.872 414.941L275.62 356.035C231.753 381.1 161.004 381.027 117.308 355.8C73.4738 330.491 73.4729 289.459 117.308 264.151Z" fill="#E6E6E6"/>
<path d="M135.076 41.664L127.471 46.0553C127.509 45.7157 127.535 45.3788 127.535 45.0482V42.8449C127.535 38.924 124.782 37.3345 121.386 39.295C120.011 40.0888 118.746 41.3468 117.722 42.819C117.165 37.8892 113.297 36.0524 108.599 38.7646C103.518 41.6972 99.4004 48.8311 99.4004 54.6972V57.9936C99.4004 59.5132 99.6818 60.7927 100.179 61.8124L93.8614 65.46C91.978 66.5477 90.4503 69.1918 90.4503 71.3673C90.4503 73.5428 91.9771 74.4236 93.8614 73.3367L135.076 49.5416C136.96 48.4539 138.487 45.8089 138.487 43.6343C138.487 41.4588 136.96 40.5772 135.076 41.664Z" fill="#EBEBEB"/>
<path d="M34.8526 61.4262L39.14 58.1244V48.6806C39.14 41.1936 45.1118 32.5024 51.5962 28.7589C58.0805 25.0155 63.3364 28.0502 63.3364 35.5372V36.909C64.8077 34.6233 66.7072 32.6574 68.785 31.4577C73.4514 28.7643 77.2334 30.9479 77.2334 36.3355V36.9591L83.2115 33.5086C86.2848 31.7346 88.7757 33.1726 88.7757 36.7208C88.7757 40.269 86.2848 44.5832 83.2115 46.3573L34.8526 74.2766C31.7802 76.0507 29.2893 74.6126 29.2893 71.0645C29.2893 67.5163 31.7793 63.2012 34.8526 61.4262Z" fill="#EBEBEB"/>
<path d="M98.4113 280.619V307.885C98.4113 322.687 108.192 337.489 127.753 348.782C166.875 371.37 230.304 371.37 269.427 348.782C288.989 337.489 298.769 322.687 298.769 307.885V280.619C298.769 265.817 288.989 251.015 269.427 239.722C230.304 217.135 166.875 217.135 127.753 239.722C108.191 251.015 98.4122 265.818 98.4113 280.619ZM289.08 280.621C289.08 292.462 280.38 304.006 264.583 313.128C247.111 323.215 223.673 328.771 198.59 328.771C173.505 328.771 150.067 323.215 132.597 313.128C116.801 304.007 108.101 292.462 108.101 280.621C108.101 268.778 116.799 257.233 132.597 248.112C150.068 238.025 173.506 232.469 198.59 232.469C223.676 232.469 247.113 238.025 264.583 248.112C280.382 257.233 289.08 268.778 289.08 280.621Z" fill="#0BA5EC"/>
<path opacity="0.2" d="M98.4113 280.619V307.885C98.4113 322.687 108.192 337.489 127.753 348.782C166.875 371.37 230.304 371.37 269.427 348.782C288.989 337.489 298.769 322.687 298.769 307.885V280.619C298.769 265.817 288.989 251.015 269.427 239.722C230.304 217.135 166.875 217.135 127.753 239.722C108.191 251.015 98.4122 265.818 98.4113 280.619ZM289.08 280.621C289.08 292.462 280.38 304.006 264.583 313.128C247.111 323.215 223.673 328.771 198.59 328.771C173.505 328.771 150.067 323.215 132.597 313.128C116.801 304.007 108.101 292.462 108.101 280.621C108.101 268.778 116.799 257.233 132.597 248.112C150.068 238.025 173.506 232.469 198.59 232.469C223.676 232.469 247.113 238.025 264.583 248.112C280.382 257.233 289.08 268.778 289.08 280.621Z" fill="white"/>
<path opacity="0.6" d="M298.669 310.432C297.11 319.806 292.98 326.869 276.346 339.855C252.822 358.223 193.265 365.723 158.697 354.311C126.098 343.548 115.704 322.518 115.704 308.081L115.788 299.6C110.756 293.602 108.1 287.157 108.1 280.621C108.1 273.92 110.887 267.314 116.167 261.189L116.286 249.245H114.417C103.751 258.762 98.4122 269.691 98.4113 280.62V307.885C98.4113 322.687 108.192 337.489 127.753 348.782C166.876 371.37 230.304 371.37 269.427 348.782C287.867 338.137 297.611 324.373 298.669 310.432Z" fill="#0BA5EC"/>
<path d="M269.434 239.722C230.311 217.135 166.882 217.135 127.759 239.722C88.6359 262.309 88.6368 298.932 127.76 321.518C166.884 344.105 230.312 344.105 269.435 321.518C308.556 298.932 308.556 262.309 269.434 239.722ZM264.59 313.128C247.119 323.215 223.681 328.771 198.596 328.771C173.512 328.771 150.076 323.215 132.603 313.128C116.806 304.007 108.106 292.462 108.106 280.621C108.106 268.778 116.804 257.233 132.603 248.112C150.074 238.025 173.51 232.469 198.596 232.469C223.681 232.469 247.119 238.025 264.59 248.112C280.388 257.233 289.086 268.778 289.086 280.621C289.086 292.462 280.386 304.006 264.59 313.128Z" fill="#0BA5EC"/>
<path opacity="0.5" d="M269.434 239.722C230.311 217.135 166.882 217.135 127.759 239.722C88.6359 262.309 88.6368 298.932 127.76 321.518C166.884 344.105 230.312 344.105 269.435 321.518C308.556 298.932 308.556 262.309 269.434 239.722ZM264.59 313.128C247.119 323.215 223.681 328.771 198.596 328.771C173.512 328.771 150.076 323.215 132.603 313.128C116.806 304.007 108.106 292.462 108.106 280.621C108.106 268.778 116.804 257.233 132.603 248.112C150.074 238.025 173.51 232.469 198.596 232.469C223.681 232.469 247.119 238.025 264.59 248.112C280.388 257.233 289.086 268.778 289.086 280.621C289.086 292.462 280.386 304.006 264.59 313.128Z" fill="white"/>
<path d="M289.094 280.618C289.094 285.268 287.758 289.842 285.181 294.259C281.209 287.38 274.215 280.928 264.584 275.386C247.126 265.291 223.679 259.731 198.588 259.731C173.515 259.731 150.069 265.291 132.611 275.386C122.981 280.928 115.986 287.38 111.995 294.259C109.437 289.842 108.1 285.268 108.1 280.618C108.1 268.779 116.8 257.231 132.611 248.104C150.068 238.029 173.515 232.467 198.588 232.467C223.68 232.467 247.126 238.029 264.584 248.104C280.393 257.231 289.094 268.779 289.094 280.618Z" fill="#0BA5EC"/>
<path opacity="0.3" d="M289.094 280.618C289.094 285.268 287.758 289.842 285.181 294.259C281.209 287.38 274.215 280.928 264.584 275.386C247.126 265.291 223.679 259.731 198.588 259.731C173.515 259.731 150.069 265.291 132.611 275.386C122.981 280.928 115.986 287.38 111.995 294.259C109.437 289.842 108.1 285.268 108.1 280.618C108.1 268.779 116.8 257.231 132.611 248.104C150.068 238.029 173.515 232.467 198.588 232.467C223.68 232.467 247.126 238.029 264.584 248.104C280.393 257.231 289.094 268.779 289.094 280.618Z" fill="white"/>
<path opacity="0.6" d="M132.61 248.104C116.799 257.23 108.099 268.778 108.099 280.618C108.099 285.268 109.436 289.842 111.994 294.259C115.985 287.38 122.98 280.928 132.61 275.386C136.537 273.116 140.78 271.088 145.264 269.287C141.443 270.763 129.727 274.534 133.999 263.363C139.076 250.088 163.865 235.721 182.083 233.333L182.095 233.302C163.352 235.19 146.171 240.278 132.61 248.104Z" fill="#0BA5EC"/>
<path opacity="0.4" d="M264.59 260.457C247.119 250.37 223.681 244.814 198.596 244.814C173.51 244.814 150.074 250.369 132.603 260.457C119.567 267.983 111.381 277.161 108.911 286.793C111.381 296.425 119.569 305.601 132.603 313.127C150.076 323.214 173.512 328.77 198.596 328.77C223.681 328.77 247.119 323.214 264.59 313.127C277.624 305.601 285.811 296.424 288.282 286.793C285.811 277.161 277.626 267.983 264.59 260.457Z" fill="white"/>
<path d="M125.906 293.046C131.505 297.434 137.859 300.196 144.337 302.417C150.83 304.612 157.505 306.169 164.235 307.326C177.714 309.589 191.416 310.227 205.06 309.654C211.879 309.357 218.708 308.719 225.491 307.798C232.257 306.833 238.987 305.626 245.549 303.851C252.107 302.098 258.553 299.866 264.48 296.661C265.965 295.867 267.4 294.987 268.779 294.032C270.173 293.09 271.481 292.035 272.715 290.894C273.946 289.748 275.07 288.479 276.021 287.066C277.001 285.666 277.744 284.093 278.252 282.386C278.306 284.169 277.94 285.985 277.337 287.723C276.707 289.454 275.81 291.088 274.782 292.631C273.76 294.185 272.556 295.61 271.264 296.933C269.985 298.28 268.586 299.492 267.149 300.648C261.351 305.243 254.727 308.559 247.947 311.192C241.142 313.801 234.11 315.667 227.012 317.025C219.917 318.376 212.741 319.209 205.513 319.574C191.076 320.246 176.479 318.876 162.501 314.997C155.531 313.016 148.7 310.429 142.334 306.92C139.163 305.152 136.093 303.183 133.284 300.886C132.575 300.325 131.908 299.701 131.225 299.116C130.57 298.485 129.898 297.889 129.281 297.228C128.043 295.915 126.896 294.521 125.906 293.046Z" fill="white"/>
<path d="M266.45 338.875C266.432 334.399 269.552 328.943 273.419 326.69C275.343 325.568 277.087 325.454 278.359 326.17L278.36 326.166L278.378 326.176L278.382 326.178L300.703 338.943C300.711 338.948 300.718 338.952 300.726 338.957L300.733 338.961L300.733 338.962C301.995 339.695 302.782 341.257 302.791 343.484C302.809 347.961 299.689 353.416 295.821 355.671C293.886 356.798 292.132 356.911 290.859 356.182L268.542 343.422L268.545 343.419C267.261 342.694 266.459 341.123 266.45 338.875Z" fill="#344054"/>
<path d="M268.545 343.418C267.261 342.694 266.46 341.123 266.451 338.875C266.444 337.188 266.884 335.363 267.641 333.621L299.726 352.011C298.613 353.533 297.269 354.826 295.822 355.67C293.887 356.797 292.133 356.91 290.86 356.181L268.543 343.421L268.545 343.418Z" fill="#1D2939"/>
<path d="M376.714 375.255L376.707 375.25C376.697 375.245 376.688 375.24 376.678 375.235L305.661 339.05C305.659 339.049 305.656 339.047 305.654 339.046L305.56 338.996L305.553 339.009C303.904 338.121 301.669 338.274 299.202 339.713C294.169 342.647 290.108 349.747 290.132 355.573C290.144 358.493 291.181 360.537 292.846 361.483L359.627 404.476C362.234 406.117 365.32 407.064 368.629 407.064C377.979 407.064 385.56 399.484 385.56 390.134C385.558 383.711 381.982 378.125 376.714 375.255Z" fill="#475467"/>
<path d="M292.844 361.482L359.625 404.475C362.232 406.116 365.318 407.064 368.626 407.064C377.609 407.064 384.938 400.062 385.502 391.222C384.223 396.782 375.03 401.513 363.629 395.141C352.165 388.735 310.019 362.098 290.83 351.049C290.374 352.58 290.125 354.116 290.131 355.572C290.143 358.492 291.18 360.537 292.844 361.482Z" fill="#344054"/>
<path d="M292.844 361.482C291.179 360.537 290.143 358.492 290.13 355.572C290.106 349.746 294.168 342.646 299.2 339.712C301.668 338.274 303.903 338.12 305.551 339.008L311.844 342.198C310.153 341.287 307.861 341.445 305.33 342.921C300.168 345.929 296.003 353.211 296.028 359.186C296.04 362.18 297.057 364.323 298.764 365.293" fill="#0BA5EC"/>
<path opacity="0.2" d="M298.764 365.293C297.058 364.323 296.041 362.18 296.029 359.187C296.022 357.684 296.282 356.098 296.755 354.518C294.609 353.246 292.619 352.08 290.83 351.048C290.602 351.813 290.426 352.58 290.307 353.338C290.248 353.717 290.203 354.093 290.173 354.466C290.144 354.838 290.129 355.207 290.13 355.571C290.143 358.491 291.179 360.535 292.844 361.481L298.764 365.293Z" fill="#101828"/>
<path d="M122.937 402.985L69.1828 376.1L47.7684 385.572L122.937 402.985Z" fill="#0BA5EC"/>
<g opacity="0.15">
<path d="M122.937 402.985L69.1828 376.1L47.7684 385.572L122.937 402.985Z" fill="white"/>
</g>
<path d="M122.937 402.985L75.5821 371.329L84.0636 359.14L122.937 402.985Z" fill="#0BA5EC"/>
<g opacity="0.15">
<path d="M122.937 402.985L75.5821 371.329L84.0636 359.14L122.937 402.985Z" fill="white"/>
</g>
<path d="M75.5821 371.329L76.4772 379.748L122.937 402.985L75.5821 371.329Z" fill="#0BA5EC"/>
<g opacity="0.2">
<path d="M75.5821 371.329L76.4772 379.748L122.937 402.985L75.5821 371.329Z" fill="#101828"/>
</g>
<path d="M67.9204 369.713C68.044 369.713 68.1686 369.665 68.2698 369.569C68.4911 369.354 68.5162 368.982 68.3227 368.735C67.9732 368.29 67.6292 367.844 67.2869 367.396C67.097 367.144 66.7618 367.114 66.537 367.326C66.3121 367.536 66.2834 367.908 66.4733 368.157C66.8174 368.611 67.1659 369.061 67.5172 369.511C67.6229 369.646 67.7707 369.713 67.9204 369.713Z" fill="#475467"/>
<path d="M63.1976 363.606C62.5614 362.671 61.9432 361.73 61.3419 360.781C61.1735 360.514 61.2317 360.145 61.4719 359.957C61.7102 359.77 62.0435 359.836 62.2146 360.101C62.8078 361.039 63.4198 361.971 64.0479 362.893C64.2253 363.154 64.1787 363.524 63.9439 363.72C63.8481 363.801 63.7352 363.84 63.6232 363.84C63.461 363.84 63.3015 363.76 63.1976 363.606ZM58.4559 355.909C57.904 354.91 57.3727 353.903 56.8628 352.89C56.7186 352.606 56.8109 352.245 57.068 352.087C57.3234 351.925 57.6495 352.029 57.792 352.314C58.2955 353.314 58.8197 354.308 59.3645 355.292C59.5177 355.57 59.4388 355.934 59.1889 356.105C59.101 356.164 59.0052 356.191 58.9102 356.191C58.731 356.191 58.5563 356.092 58.4559 355.909ZM54.4598 347.701C54.0118 346.639 53.5826 345.562 53.1839 344.498C53.0719 344.197 53.2 343.851 53.4715 343.725C53.7439 343.601 54.0548 343.743 54.1677 344.045C54.5592 345.094 54.9812 346.155 55.423 347.201C55.5475 347.497 55.4328 347.848 55.1667 347.986C55.0941 348.024 55.0162 348.042 54.9409 348.042C54.7411 348.041 54.5494 347.915 54.4598 347.701ZM51.3614 339.024C51.0335 337.904 50.7306 336.774 50.4618 335.666C50.3848 335.351 50.5523 335.026 50.8363 334.942C51.1204 334.853 51.4134 335.044 51.4886 335.358C51.7538 336.447 52.0513 337.558 52.3739 338.659C52.4644 338.969 52.3121 339.303 52.0316 339.404C51.9778 339.424 51.9214 339.433 51.8676 339.433C51.6427 339.433 51.4349 339.274 51.3614 339.024ZM49.3024 329.972C49.116 328.831 48.953 327.665 48.8203 326.51C48.7827 326.185 48.9888 325.889 49.2809 325.849C49.564 325.81 49.84 326.037 49.8758 326.36C50.0067 327.496 50.1661 328.641 50.3498 329.761C50.4018 330.082 50.21 330.39 49.9206 330.447C49.8893 330.455 49.8561 330.457 49.8248 330.457C49.573 330.458 49.349 330.258 49.3024 329.972ZM48.3813 320.691C48.3491 319.778 48.332 318.86 48.3311 317.941L48.3356 317.187C48.3401 316.862 48.5766 316.604 48.8678 316.604C48.8696 316.604 48.8732 316.604 48.875 316.604C49.1689 316.609 49.4036 316.876 49.4001 317.203L49.3965 317.94C49.3974 318.845 49.4135 319.747 49.4467 320.643C49.4592 320.97 49.2298 321.244 48.9359 321.257C48.9288 321.257 48.9216 321.257 48.9144 321.257C48.6286 321.257 48.3921 321.008 48.3813 320.691ZM49.0936 312.001C48.8006 311.97 48.5856 311.682 48.6134 311.357C48.7128 310.203 48.8383 309.033 48.9879 307.879C49.0291 307.556 49.3006 307.331 49.59 307.378C49.8812 307.425 50.0837 307.724 50.0416 308.047C49.8946 309.183 49.7701 310.335 49.6733 311.468C49.6465 311.774 49.4153 312.003 49.1447 312.003C49.1277 312.003 49.1106 312.003 49.0936 312.001ZM50.348 302.847C50.0613 302.774 49.8821 302.457 49.9484 302.139C50.1832 301.005 50.452 299.863 50.7459 298.745C50.8283 298.432 51.1213 298.252 51.4062 298.343C51.6893 298.434 51.8506 298.763 51.7691 299.076C51.4797 300.173 51.2162 301.293 50.986 302.404C50.9295 302.677 50.71 302.862 50.4672 302.862C50.4287 302.863 50.3875 302.858 50.348 302.847ZM52.7645 293.991C52.4904 293.868 52.3595 293.525 52.468 293.223C52.8577 292.146 53.2842 291.064 53.7322 290.008C53.8577 289.712 54.1793 289.592 54.441 289.725C54.7071 289.865 54.8209 290.217 54.6963 290.511C54.2564 291.546 53.8388 292.607 53.4562 293.662C53.3729 293.893 53.1722 294.034 52.9617 294.034C52.8963 294.034 52.8282 294.02 52.7645 293.991ZM56.3996 285.66C56.1469 285.492 56.0654 285.13 56.2168 284.85C56.7571 283.848 57.3306 282.856 57.921 281.895C58.0877 281.624 58.4192 281.558 58.6611 281.74C58.9039 281.925 58.9667 282.292 58.8009 282.562C58.2221 283.503 57.6594 284.477 57.129 285.458C57.0286 285.642 56.853 285.744 56.6729 285.744C56.5797 285.744 56.4856 285.718 56.3996 285.66ZM61.1636 278.06C60.9379 277.85 60.9074 277.48 61.0955 277.228C61.772 276.327 62.4763 275.443 63.1895 274.598C63.392 274.359 63.7289 274.348 63.9421 274.569C64.1572 274.792 64.1679 275.166 63.9672 275.404C63.2674 276.233 62.5775 277.101 61.9145 277.985C61.8088 278.124 61.6573 278.196 61.505 278.196C61.3841 278.195 61.264 278.152 61.1636 278.06ZM66.9186 271.351C66.7233 271.107 66.7439 270.734 66.9635 270.518C67.7519 269.742 68.5682 268.983 69.3871 268.263C69.6174 268.061 69.9534 268.102 70.1362 268.359C70.319 268.615 70.2795 268.986 70.0493 269.19C69.2447 269.896 68.4445 270.639 67.6704 271.401C67.5691 271.501 67.4428 271.55 67.3174 271.55C67.1695 271.549 67.0235 271.483 66.9186 271.351ZM73.5195 265.681C73.3609 265.406 73.4326 265.041 73.6808 264.866C74.5848 264.225 75.5023 263.621 76.4073 263.072C76.6627 262.919 76.987 263.021 77.1304 263.307C77.271 263.594 77.1761 263.952 76.918 264.109C76.0346 264.645 75.1377 265.234 74.2551 265.86C74.1664 265.924 74.0669 265.953 73.9684 265.953C73.7937 265.952 73.6207 265.857 73.5195 265.681Z" fill="#475467"/>
<path d="M81.4455 261.81C81.5001 261.81 81.5539 261.8 81.6077 261.781C82.1766 261.579 82.6676 261.444 83.0681 261.379C83.3593 261.333 83.5618 261.034 83.5197 260.711C83.4785 260.387 83.2008 260.159 82.9167 260.21C82.4571 260.284 81.9078 260.433 81.2824 260.656C81.002 260.756 80.8488 261.088 80.9384 261.398C81.0118 261.651 81.2197 261.81 81.4455 261.81Z" fill="#475467"/>
<path d="M333.041 55.6855L277.937 38.7968L320.389 67.958L333.041 55.6855Z" fill="#0BA5EC"/>
<path opacity="0.15" d="M333.041 55.6855L277.937 38.7968L320.389 67.958L333.041 55.6855Z" fill="white"/>
<path d="M277.937 38.7968L337.245 48.3365L349.897 36.064L277.937 38.7968Z" fill="#0BA5EC"/>
<path opacity="0.15" d="M277.937 38.7968L337.245 48.3365L349.897 36.064L277.937 38.7968Z" fill="white"/>
<path d="M337.245 48.3365L337.304 63.0013L333.041 55.6855L277.937 38.7968L337.245 48.3365Z" fill="#0BA5EC"/>
<path opacity="0.2" d="M337.245 48.3365L337.304 63.0013L333.041 55.6855L277.937 38.7968L337.245 48.3365Z" fill="#101828"/>
<path d="M337.304 63.0013L328.824 59.7766L333.041 55.6855L337.304 63.0013Z" fill="#0BA5EC"/>
<path opacity="0.2" d="M333.041 55.6855L328.824 59.7766L330.176 60.2909L333.041 55.6855Z" fill="#101828"/>
<path d="M348.42 53.1059C348.322 53.1812 348.252 53.2941 348.23 53.432C348.183 53.7367 348.389 54.0476 348.693 54.1273C349.24 54.2698 349.784 54.4167 350.329 54.5655C350.633 54.6506 350.917 54.4705 350.968 54.1668C351.02 53.8639 350.816 53.5503 350.514 53.467C349.966 53.3156 349.416 53.1677 348.864 53.0226C348.698 52.9796 348.539 53.0154 348.42 53.1059Z" fill="#475467"/>
<path d="M355.879 55.1022C356.951 55.4597 358.013 55.8342 359.067 56.2249C359.362 56.3351 359.54 56.663 359.463 56.9587C359.387 57.2517 359.081 57.4014 358.784 57.2938C357.744 56.9077 356.692 56.5367 355.634 56.1828C355.335 56.0833 355.148 55.7599 355.216 55.4615C355.243 55.3397 355.31 55.2402 355.398 55.173C355.527 55.0753 355.702 55.0431 355.879 55.1022ZM364.314 58.352C365.357 58.8126 366.391 59.291 367.411 59.7892C367.698 59.9281 367.843 60.2703 367.735 60.5526C367.629 60.8348 367.307 60.9504 367.02 60.8097C366.014 60.3187 364.995 59.8465 363.965 59.3941C363.675 59.265 363.516 58.9281 363.612 58.6405C363.646 58.5402 363.706 58.4604 363.781 58.4031C363.924 58.2947 364.123 58.2678 364.314 58.352ZM372.467 62.4602C373.467 63.0327 374.461 63.6294 375.423 64.2351C375.695 64.4063 375.802 64.7593 375.662 65.0245C375.521 65.2888 375.187 65.3632 374.915 65.1921C373.968 64.5944 372.989 64.0067 372.005 63.4422C371.726 63.2827 371.605 62.9341 371.733 62.6627C371.767 62.5883 371.819 62.5265 371.879 62.4808C372.036 62.3598 372.266 62.3446 372.467 62.4602ZM380.189 67.4849C381.129 68.1775 382.054 68.8917 382.94 69.6111C383.191 69.8154 383.255 70.1756 383.08 70.414C382.908 70.6568 382.56 70.6828 382.309 70.4785C381.437 69.7724 380.528 69.0682 379.604 68.3881C379.343 68.1964 379.263 67.8389 379.426 67.5889C379.457 67.5405 379.495 67.4984 379.538 67.4661C379.717 67.3299 379.979 67.3308 380.189 67.4849ZM387.312 73.4389C388.152 74.2327 388.988 75.0615 389.794 75.9011C390.021 76.1358 390.035 76.496 389.828 76.7057C389.627 76.9082 389.27 76.8947 389.045 76.66C388.253 75.8357 387.432 75.0212 386.607 74.2408C386.371 74.0177 386.337 73.6557 386.533 73.4353C386.553 73.4111 386.577 73.3878 386.603 73.369C386.802 73.2158 387.102 73.2399 387.312 73.4389ZM393.669 80.2637C394.248 80.9697 394.817 81.6901 395.375 82.4213L395.83 83.0234C396.022 83.2832 395.991 83.6326 395.759 83.8092C395.757 83.8101 395.754 83.8118 395.753 83.8136C395.517 83.9884 395.168 83.9176 394.974 83.6559L394.53 83.0673C393.981 82.3478 393.422 81.6408 392.852 80.9464C392.644 80.6947 392.66 80.3372 392.886 80.149C392.892 80.1445 392.898 80.14 392.903 80.1356C393.129 79.9626 393.468 80.0182 393.669 80.2637ZM398.368 87.6082C398.62 87.455 398.966 87.5544 399.139 87.8295C399.76 88.8079 400.369 89.815 400.949 90.8239C401.112 91.1053 401.033 91.4494 400.774 91.5873C400.514 91.7271 400.172 91.6115 400.009 91.3293C399.438 90.3365 398.839 89.3446 398.229 88.3841C398.065 88.1243 398.111 87.8017 398.326 87.6378C398.339 87.627 398.354 87.6163 398.368 87.6082ZM402.916 95.6498C403.188 95.5333 403.523 95.6776 403.662 95.9706C404.162 97.0153 404.641 98.086 405.084 99.1532C405.208 99.4515 405.084 99.7732 404.802 99.8735C404.522 99.9721 404.194 99.8081 404.07 99.5107C403.635 98.4632 403.166 97.4122 402.677 96.389C402.556 96.1381 402.619 95.8568 402.811 95.7098C402.843 95.6865 402.878 95.6659 402.916 95.6498ZM406.36 104.159C406.652 104.091 406.965 104.284 407.061 104.591C407.403 105.684 407.72 106.803 408.003 107.914C408.082 108.226 407.9 108.517 407.61 108.569C407.314 108.619 407.01 108.408 406.931 108.099C406.654 107.008 406.343 105.912 406.008 104.841C405.935 104.606 406.009 104.373 406.177 104.246C406.23 104.205 406.292 104.176 406.36 104.159ZM408.517 112.989C408.819 112.969 409.104 113.209 409.153 113.522C409.33 114.646 409.476 115.784 409.588 116.906C409.619 117.222 409.395 117.475 409.093 117.478C408.787 117.479 408.516 117.225 408.484 116.909C408.374 115.81 408.231 114.693 408.059 113.592C408.027 113.384 408.105 113.197 408.248 113.088C408.322 113.031 408.414 112.995 408.517 112.989Z" fill="#475467"/>
<path d="M418.324 256.104C415.926 254.67 412.538 254.867 408.777 257.039L340.531 296.441C333.246 300.647 327.339 310.642 327.339 318.766C327.339 322.735 328.749 325.521 331.041 326.843C332.286 327.561 337.113 330.347 338.365 331.063C340.758 332.429 344.102 332.207 347.808 330.067L416.055 290.664C423.34 286.458 429.247 276.463 429.247 268.339C429.247 264.388 427.85 261.61 425.577 260.281C424.326 259.549 419.529 256.822 418.324 256.104Z" fill="#E0E0E0"/>
<path d="M341.752 331.476C337.629 331.476 335.066 328.217 335.066 322.972C335.066 315.004 340.883 305.163 348.034 301.034L416.281 261.633C418.318 260.456 420.335 259.835 422.114 259.835C426.239 259.835 428.8 263.092 428.8 268.338C428.8 276.306 422.984 286.147 415.833 290.274L347.585 329.677C345.548 330.854 343.531 331.476 341.752 331.476Z" fill="#F9FAFB"/>
<path d="M422.114 260.283C425.961 260.283 428.352 263.369 428.352 268.338C428.352 276.163 422.635 285.83 415.609 289.887L347.362 329.29C345.393 330.427 343.453 331.028 341.753 331.028C339.915 331.028 338.372 330.331 337.289 329.013C336.129 327.599 335.515 325.511 335.515 322.972C335.515 315.146 341.233 305.48 348.259 301.422L416.505 262.021C418.473 260.884 420.413 260.283 422.114 260.283ZM422.113 259.387C420.299 259.387 418.239 259.984 416.056 261.245L347.81 300.647C340.525 304.852 334.618 314.848 334.618 322.972C334.618 328.662 337.514 331.924 341.752 331.924C343.566 331.924 345.626 331.326 347.809 330.066L416.056 290.663C423.341 286.457 429.247 276.462 429.247 268.338C429.248 262.649 426.352 259.387 422.113 259.387Z" fill="#EBEBEB"/>
<path d="M358.507 309.438C358.784 308.919 358.736 308.385 358.478 308.239C358.395 308.192 356.45 307.072 356.197 306.921C356.112 306.871 356.005 306.863 355.879 306.911L353.783 307.715L353.092 306.247C353.053 306.163 352.999 306.105 352.937 306.071C352.649 305.911 350.714 304.785 350.653 304.75C350.365 304.587 349.886 304.951 349.699 305.564L348.274 310.234C348.185 310.528 348.011 310.796 347.81 310.951L344.626 313.407C344.12 313.797 343.918 314.743 344.284 315.008L346.589 316.672C346.734 316.777 346.8 317.011 346.766 317.298L346.222 321.84C346.183 322.172 346.273 322.395 346.426 322.483C346.606 322.586 348.559 323.717 348.712 323.804C348.893 323.908 349.16 323.824 349.403 323.512L352.252 319.871C352.432 319.642 352.646 319.517 352.826 319.54L355.674 319.892C356.127 319.947 356.655 319.13 356.569 318.508L356.026 314.594C355.992 314.346 356.058 314.036 356.203 313.763L358.507 309.438Z" fill="#F79009"/>
<path opacity="0.15" d="M358.481 308.237C358.396 308.192 358.289 308.185 358.165 308.231L354.978 309.453C354.781 309.532 354.606 309.464 354.517 309.273L353.785 307.713L355.88 306.914C356.003 306.864 356.111 306.869 356.195 306.919C356.448 307.072 358.396 308.192 358.481 308.237Z" fill="white"/>
<path opacity="0.15" d="M350.564 311.553C350.473 311.852 350.299 312.117 350.096 312.275L346.914 314.73C346.773 314.836 346.655 314.989 346.571 315.158L344.284 313.835C344.369 313.672 344.487 313.519 344.628 313.406L347.809 310.951C348.012 310.799 348.186 310.529 348.277 310.236V310.231L350.564 311.553Z" fill="white"/>
<path opacity="0.1" d="M352.957 306.081C352.67 305.895 352.18 306.261 351.988 306.886L350.564 311.554L348.277 310.231L349.702 305.563C349.887 304.954 350.366 304.589 350.653 304.752C350.715 304.786 352.647 305.912 352.94 306.07C352.945 306.074 352.951 306.074 352.957 306.081Z" fill="#101828"/>
<path opacity="0.25" d="M348.874 317.996L346.61 316.695C346.605 316.689 346.599 316.678 346.588 316.672L344.285 315.006C344.021 314.814 344.054 314.274 344.285 313.835L346.572 315.158C346.341 315.592 346.308 316.137 346.572 316.329L348.874 317.996Z" fill="#101828"/>
<path opacity="0.15" d="M348.508 323.165C348.469 323.503 348.565 323.727 348.728 323.813C348.722 323.813 348.716 323.813 348.711 323.807C348.558 323.717 346.604 322.585 346.424 322.484C346.272 322.394 346.182 322.174 346.222 321.842L346.768 317.298C346.796 317.027 346.74 316.808 346.61 316.696L348.874 317.997C348.879 318.002 348.885 318.008 348.891 318.008L348.896 318.014V318.019C349.026 318.132 349.088 318.357 349.054 318.622L348.508 323.165Z" fill="#101828"/>
<path d="M353.092 306.247L354.517 309.273C354.606 309.464 354.78 309.532 354.981 309.455L358.165 308.234C358.671 308.04 358.873 308.752 358.508 309.439L356.203 313.765C356.058 314.038 355.992 314.348 356.026 314.595L356.569 318.51C356.655 319.132 356.127 319.949 355.674 319.893L352.826 319.541C352.646 319.519 352.432 319.643 352.252 319.873L349.403 323.514C348.951 324.093 348.422 323.885 348.508 323.164L349.052 318.621C349.086 318.334 349.02 318.101 348.875 317.996L346.57 316.331C346.204 316.067 346.406 315.121 346.911 314.731L350.096 312.275C350.297 312.12 350.47 311.851 350.56 311.557L351.985 306.887C352.212 306.144 352.866 305.767 353.092 306.247Z" fill="#F79009"/>
<path opacity="0.5" d="M353.092 306.247L354.517 309.273C354.606 309.464 354.78 309.532 354.981 309.455L358.165 308.234C358.671 308.04 358.873 308.752 358.508 309.439L356.203 313.765C356.058 314.038 355.992 314.348 356.026 314.595L356.569 318.51C356.655 319.132 356.127 319.949 355.674 319.893L352.826 319.541C352.646 319.519 352.432 319.643 352.252 319.873L349.403 323.514C348.951 324.093 348.422 323.885 348.508 323.164L349.052 318.621C349.086 318.334 349.02 318.101 348.875 317.996L346.57 316.331C346.204 316.067 346.406 315.121 346.911 314.731L350.096 312.275C350.297 312.12 350.47 311.851 350.56 311.557L351.985 306.887C352.212 306.144 352.866 305.767 353.092 306.247Z" fill="white"/>
<path d="M374.498 300.217C374.775 299.699 374.727 299.165 374.469 299.018C374.385 298.971 372.441 297.851 372.188 297.7C372.103 297.65 371.996 297.642 371.87 297.691L369.774 298.494L369.083 297.027C369.044 296.942 368.99 296.884 368.928 296.85C368.639 296.691 366.705 295.564 366.644 295.529C366.356 295.366 365.877 295.73 365.69 296.343L364.266 301.013C364.176 301.308 364.003 301.576 363.802 301.731L360.618 304.187C360.111 304.576 359.91 305.522 360.275 305.787L362.58 307.452C362.725 307.556 362.791 307.79 362.757 308.077L362.213 312.62C362.174 312.951 362.264 313.174 362.417 313.262C362.597 313.365 364.55 314.496 364.703 314.584C364.883 314.687 365.15 314.603 365.394 314.292L368.243 310.65C368.423 310.421 368.637 310.296 368.817 310.319L371.665 310.671C372.118 310.726 372.646 309.909 372.56 309.288L372.016 305.373C371.982 305.126 372.049 304.816 372.194 304.542L374.498 300.217Z" fill="#F79009"/>
<path opacity="0.15" d="M374.472 299.017C374.388 298.972 374.281 298.966 374.157 299.011L370.97 300.233C370.773 300.312 370.598 300.245 370.509 300.053L369.776 298.493L371.871 297.693C371.995 297.643 372.103 297.649 372.187 297.699C372.439 297.851 374.388 298.971 374.472 299.017Z" fill="white"/>
<path opacity="0.15" d="M366.555 302.333C366.465 302.631 366.291 302.896 366.088 303.053L362.906 305.508C362.765 305.615 362.647 305.767 362.563 305.936L360.276 304.613C360.36 304.45 360.479 304.298 360.619 304.185L363.801 301.73C364.004 301.577 364.178 301.308 364.269 301.015V301.009L366.555 302.333Z" fill="white"/>
<path opacity="0.1" d="M368.949 296.86C368.661 296.675 368.172 297.04 367.98 297.666L366.555 302.334L364.269 301.01L365.693 296.342C365.879 295.734 366.358 295.368 366.645 295.531C366.707 295.565 368.639 296.692 368.932 296.849C368.937 296.854 368.943 296.854 368.949 296.86Z" fill="#101828"/>
<path opacity="0.25" d="M364.866 308.775L362.602 307.474C362.597 307.469 362.591 307.457 362.58 307.452L360.277 305.785C360.013 305.593 360.046 305.053 360.277 304.614L362.564 305.937C362.333 306.371 362.299 306.917 362.564 307.108L364.866 308.775Z" fill="#101828"/>
<path opacity="0.15" d="M364.5 313.944C364.461 314.282 364.556 314.508 364.719 314.592C364.714 314.592 364.708 314.592 364.702 314.586C364.55 314.496 362.597 313.364 362.417 313.263C362.264 313.173 362.175 312.953 362.214 312.622L362.761 308.077C362.789 307.806 362.733 307.587 362.603 307.475L364.866 308.776C364.872 308.781 364.878 308.788 364.883 308.788L364.889 308.793V308.798C365.019 308.911 365.081 309.136 365.047 309.4L364.5 313.944Z" fill="#101828"/>
<path d="M369.084 297.027L370.509 300.052C370.598 300.243 370.772 300.311 370.973 300.234L374.157 299.013C374.663 298.819 374.865 299.531 374.498 300.218L372.194 304.544C372.049 304.817 371.982 305.127 372.016 305.375L372.56 309.289C372.646 309.911 372.118 310.728 371.665 310.673L368.817 310.321C368.638 310.298 368.423 310.423 368.243 310.652L365.394 314.293C364.942 314.872 364.413 314.665 364.499 313.943L365.043 309.4C365.077 309.114 365.011 308.88 364.866 308.775L362.561 307.11C362.195 306.846 362.397 305.901 362.903 305.51L366.088 303.054C366.288 302.899 366.462 302.631 366.552 302.336L367.976 297.666C368.204 296.924 368.858 296.546 369.084 297.027Z" fill="#F79009"/>
<path opacity="0.5" d="M369.084 297.027L370.509 300.052C370.598 300.243 370.772 300.311 370.973 300.234L374.157 299.013C374.663 298.819 374.865 299.531 374.498 300.218L372.194 304.544C372.049 304.817 371.982 305.127 372.016 305.375L372.56 309.289C372.646 309.911 372.118 310.728 371.665 310.673L368.817 310.321C368.638 310.298 368.423 310.423 368.243 310.652L365.394 314.293C364.942 314.872 364.413 314.665 364.499 313.943L365.043 309.4C365.077 309.114 365.011 308.88 364.866 308.775L362.561 307.11C362.195 306.846 362.397 305.901 362.903 305.51L366.088 303.054C366.288 302.899 366.462 302.631 366.552 302.336L367.976 297.666C368.204 296.924 368.858 296.546 369.084 297.027Z" fill="white"/>
<path d="M390.49 290.997C390.767 290.479 390.719 289.945 390.461 289.799C390.377 289.751 388.433 288.631 388.179 288.48C388.095 288.43 387.988 288.421 387.861 288.47L385.766 289.274L385.075 287.806C385.035 287.722 384.982 287.663 384.92 287.629C384.631 287.47 382.697 286.344 382.636 286.309C382.347 286.146 381.869 286.509 381.682 287.122L380.258 291.792C380.168 292.087 379.994 292.355 379.794 292.51L376.609 294.966C376.103 295.356 375.902 296.302 376.267 296.566L378.572 298.231C378.717 298.336 378.783 298.57 378.749 298.856L378.205 303.399C378.166 303.73 378.255 303.954 378.409 304.041C378.589 304.144 380.542 305.275 380.695 305.363C380.875 305.466 381.142 305.383 381.386 305.071L384.234 301.43C384.414 301.2 384.629 301.076 384.809 301.098L387.657 301.45C388.11 301.507 388.638 300.689 388.552 300.067L388.008 296.152C387.974 295.905 388.041 295.595 388.186 295.322L390.49 290.997Z" fill="#F79009"/>
<path opacity="0.15" d="M390.464 289.796C390.38 289.751 390.272 289.746 390.149 289.791L386.962 291.013C386.765 291.092 386.59 291.023 386.5 290.833L385.768 289.273L387.863 288.473C387.987 288.422 388.094 288.429 388.179 288.479C388.431 288.63 390.38 289.751 390.464 289.796Z" fill="white"/>
<path opacity="0.15" d="M382.547 293.113C382.457 293.411 382.283 293.676 382.079 293.833L378.898 296.288C378.757 296.395 378.639 296.547 378.555 296.717L376.268 295.393C376.352 295.23 376.47 295.078 376.611 294.965L379.793 292.51C379.995 292.358 380.17 292.088 380.261 291.795V291.79L382.547 293.113Z" fill="white"/>
<path opacity="0.1" d="M384.94 287.639C384.654 287.454 384.164 287.819 383.972 288.445L382.547 293.113L380.261 291.79L381.685 287.121C381.871 286.513 382.35 286.147 382.637 286.311C382.699 286.345 384.63 287.471 384.923 287.629C384.929 287.634 384.934 287.634 384.94 287.639Z" fill="#101828"/>
<path opacity="0.25" d="M380.857 299.554L378.594 298.253C378.589 298.248 378.582 298.236 378.572 298.231L376.269 296.564C376.005 296.373 376.038 295.832 376.269 295.393L378.555 296.717C378.324 297.15 378.291 297.697 378.555 297.888L380.857 299.554Z" fill="#101828"/>
<path opacity="0.15" d="M380.492 304.723C380.452 305.061 380.548 305.286 380.711 305.371C380.706 305.371 380.7 305.371 380.694 305.366C380.542 305.275 378.589 304.144 378.408 304.042C378.255 303.952 378.166 303.732 378.205 303.4L378.752 298.855C378.779 298.585 378.724 298.365 378.594 298.253L380.857 299.554C380.863 299.56 380.868 299.566 380.874 299.566L380.88 299.571V299.577C381.01 299.69 381.071 299.914 381.037 300.179L380.492 304.723Z" fill="#101828"/>
<path d="M385.076 287.807L386.5 290.833C386.59 291.023 386.764 291.092 386.964 291.015L390.149 289.793C390.655 289.599 390.857 290.311 390.49 290.998L388.186 295.324C388.041 295.598 387.974 295.908 388.008 296.155L388.552 300.069C388.638 300.691 388.11 301.509 387.657 301.453L384.809 301.101C384.629 301.078 384.414 301.203 384.234 301.432L381.386 305.074C380.933 305.652 380.405 305.445 380.491 304.723L381.035 300.18C381.069 299.893 381.002 299.659 380.857 299.554L378.553 297.89C378.186 297.625 378.389 296.68 378.894 296.29L382.079 293.834C382.279 293.679 382.453 293.41 382.543 293.117L383.967 288.447C384.196 287.703 384.85 287.326 385.076 287.807Z" fill="#F79009"/>
<path opacity="0.5" d="M385.076 287.807L386.5 290.833C386.59 291.023 386.764 291.092 386.964 291.015L390.149 289.793C390.655 289.599 390.857 290.311 390.49 290.998L388.186 295.324C388.041 295.598 387.974 295.908 388.008 296.155L388.552 300.069C388.638 300.691 388.11 301.509 387.657 301.453L384.809 301.101C384.629 301.078 384.414 301.203 384.234 301.432L381.386 305.074C380.933 305.652 380.405 305.445 380.491 304.723L381.035 300.18C381.069 299.893 381.002 299.659 380.857 299.554L378.553 297.89C378.186 297.625 378.389 296.68 378.894 296.29L382.079 293.834C382.279 293.679 382.453 293.41 382.543 293.117L383.967 288.447C384.196 287.703 384.85 287.326 385.076 287.807Z" fill="white"/>
<path d="M406.482 281.777C406.759 281.258 406.711 280.724 406.452 280.578C406.369 280.53 404.425 279.41 404.171 279.26C404.087 279.21 403.98 279.202 403.853 279.25L401.757 280.054L401.067 278.586C401.027 278.502 400.973 278.444 400.912 278.41C400.623 278.25 398.689 277.124 398.628 277.089C398.339 276.926 397.861 277.29 397.673 277.902L396.249 282.572C396.159 282.867 395.985 283.135 395.785 283.29L392.6 285.746C392.095 286.136 391.892 287.082 392.259 287.346L394.563 289.011C394.709 289.116 394.775 289.35 394.741 289.636L394.197 294.179C394.158 294.511 394.247 294.734 394.4 294.822C394.58 294.926 396.534 296.055 396.687 296.143C396.867 296.246 397.134 296.163 397.378 295.851L400.226 292.21C400.406 291.98 400.62 291.856 400.8 291.878L403.649 292.23C404.101 292.286 404.63 291.469 404.544 290.847L404 286.932C403.966 286.685 404.032 286.375 404.178 286.102L406.482 281.777Z" fill="#F79009"/>
<path opacity="0.15" d="M406.456 280.575C406.372 280.53 406.264 280.525 406.141 280.57L402.954 281.792C402.756 281.871 402.582 281.803 402.492 281.612L401.76 280.052L403.855 279.253C403.979 279.202 404.086 279.208 404.17 279.258C404.423 279.409 406.371 280.53 406.456 280.575Z" fill="white"/>
<path opacity="0.15" d="M398.539 283.892C398.449 284.191 398.275 284.455 398.071 284.613L394.89 287.068C394.749 287.174 394.631 287.327 394.546 287.496L392.26 286.173C392.344 286.009 392.462 285.857 392.603 285.744L395.785 283.289C395.987 283.137 396.162 282.867 396.252 282.574V282.569L398.539 283.892Z" fill="white"/>
<path opacity="0.1" d="M400.932 278.419C400.646 278.233 400.155 278.599 399.964 279.224L398.539 283.892L396.252 282.569L397.677 277.901C397.863 277.292 398.342 276.927 398.629 277.09C398.69 277.124 400.622 278.25 400.915 278.408C400.921 278.413 400.926 278.413 400.932 278.419Z" fill="#101828"/>
<path opacity="0.25" d="M396.849 290.334L394.586 289.033C394.58 289.027 394.574 289.016 394.563 289.01L392.261 287.344C391.996 287.152 392.03 286.612 392.261 286.173L394.547 287.496C394.316 287.93 394.283 288.476 394.547 288.667L396.849 290.334Z" fill="#101828"/>
<path opacity="0.15" d="M396.484 295.503C396.444 295.841 396.54 296.066 396.703 296.151C396.698 296.151 396.691 296.151 396.686 296.146C396.534 296.055 394.58 294.924 394.399 294.823C394.247 294.732 394.158 294.512 394.197 294.181L394.744 289.636C394.771 289.366 394.716 289.146 394.586 289.034L396.849 290.335C396.854 290.341 396.861 290.347 396.866 290.347L396.872 290.352V290.358C397.001 290.471 397.063 290.696 397.029 290.96L396.484 295.503Z" fill="#101828"/>
<path d="M401.068 278.586L402.492 281.611C402.582 281.802 402.756 281.87 402.956 281.793L406.141 280.572C406.647 280.377 406.849 281.09 406.482 281.777L404.178 286.103C404.032 286.376 403.966 286.686 404 286.933L404.544 290.848C404.63 291.47 404.101 292.288 403.649 292.231L400.801 291.879C400.62 291.857 400.406 291.98 400.226 292.211L397.378 295.852C396.925 296.431 396.397 296.224 396.483 295.502L397.027 290.959C397.061 290.672 396.994 290.438 396.849 290.334L394.545 288.669C394.178 288.404 394.381 287.459 394.886 287.069L398.07 284.613C398.271 284.458 398.445 284.189 398.535 283.895L399.959 279.225C400.188 278.483 400.841 278.105 401.068 278.586Z" fill="#F79009"/>
<path opacity="0.5" d="M401.068 278.586L402.492 281.611C402.582 281.802 402.756 281.87 402.956 281.793L406.141 280.572C406.647 280.377 406.849 281.09 406.482 281.777L404.178 286.103C404.032 286.376 403.966 286.686 404 286.933L404.544 290.848C404.63 291.47 404.101 292.288 403.649 292.231L400.801 291.879C400.62 291.857 400.406 291.98 400.226 292.211L397.378 295.852C396.925 296.431 396.397 296.224 396.483 295.502L397.027 290.959C397.061 290.672 396.994 290.438 396.849 290.334L394.545 288.669C394.178 288.404 394.381 287.459 394.886 287.069L398.07 284.613C398.271 284.458 398.445 284.189 398.535 283.895L399.959 279.225C400.188 278.483 400.841 278.105 401.068 278.586Z" fill="white"/>
<path d="M422.474 272.556C422.751 272.037 422.702 271.503 422.444 271.357C422.361 271.31 420.417 270.19 420.163 270.039C420.079 269.989 419.971 269.981 419.845 270.029L417.749 270.833L417.058 269.365C417.019 269.281 416.965 269.223 416.903 269.189C416.615 269.029 414.68 267.903 414.62 267.868C414.331 267.705 413.853 268.069 413.665 268.682L412.242 273.352C412.152 273.646 411.978 273.914 411.777 274.069L408.593 276.525C408.087 276.915 407.885 277.86 408.251 278.126L410.555 279.79C410.7 279.895 410.767 280.129 410.733 280.416L410.189 284.958C410.149 285.29 410.239 285.513 410.392 285.601C410.572 285.705 412.526 286.835 412.679 286.922C412.859 287.026 413.125 286.942 413.37 286.629L416.218 282.988C416.398 282.759 416.612 282.634 416.792 282.657L419.641 283.009C420.093 283.064 420.622 282.247 420.536 281.625L419.992 277.711C419.958 277.463 420.024 277.153 420.169 276.88L422.474 272.556Z" fill="#F79009"/>
<path opacity="0.15" d="M422.448 271.354C422.364 271.31 422.256 271.303 422.133 271.349L418.945 272.571C418.748 272.65 418.574 272.583 418.484 272.391L417.752 270.831L419.847 270.032C419.97 269.981 420.078 269.987 420.162 270.037C420.415 270.189 422.363 271.31 422.448 271.354Z" fill="white"/>
<path opacity="0.15" d="M414.531 274.671C414.44 274.97 414.266 275.234 414.063 275.392L410.881 277.847C410.741 277.954 410.622 278.106 410.538 278.275L408.252 276.952C408.336 276.789 408.454 276.636 408.595 276.524L411.777 274.068C411.979 273.916 412.154 273.646 412.244 273.353V273.348L414.531 274.671Z" fill="white"/>
<path opacity="0.1" d="M416.923 269.198C416.636 269.012 416.146 269.378 415.955 270.003L414.53 274.671L412.243 273.348L413.668 268.68C413.853 268.072 414.333 267.706 414.62 267.869C414.681 267.903 416.613 269.029 416.906 269.187C416.912 269.192 416.918 269.192 416.923 269.198Z" fill="#101828"/>
<path opacity="0.25" d="M412.841 281.114L410.578 279.813C410.572 279.807 410.566 279.796 410.555 279.79L408.253 278.124C407.988 277.932 408.021 277.392 408.253 276.953L410.539 278.276C410.308 278.71 410.275 279.256 410.539 279.447L412.841 281.114Z" fill="#101828"/>
<path opacity="0.15" d="M412.475 286.283C412.436 286.621 412.532 286.845 412.695 286.931C412.69 286.931 412.683 286.931 412.678 286.925C412.526 286.835 410.572 285.703 410.392 285.602C410.24 285.512 410.15 285.292 410.19 284.96L410.736 280.416C410.764 280.145 410.708 279.926 410.579 279.814L412.842 281.115C412.847 281.12 412.854 281.125 412.859 281.125L412.864 281.131V281.136C412.994 281.249 413.056 281.474 413.022 281.738L412.475 286.283Z" fill="#101828"/>
<path d="M417.059 269.365L418.484 272.391C418.574 272.582 418.747 272.65 418.948 272.573L422.132 271.352C422.639 271.157 422.84 271.87 422.475 272.557L420.17 276.883C420.025 277.155 419.959 277.466 419.993 277.713L420.537 281.628C420.623 282.25 420.094 283.067 419.642 283.011L416.793 282.659C416.614 282.637 416.399 282.761 416.219 282.991L413.371 286.632C412.918 287.211 412.389 287.004 412.475 286.282L413.019 281.739C413.053 281.452 412.987 281.219 412.842 281.114L410.537 279.449C410.171 279.185 410.373 278.239 410.88 277.849L414.064 275.393C414.265 275.238 414.439 274.969 414.528 274.675L415.953 270.005C416.179 269.262 416.833 268.885 417.059 269.365Z" fill="#F79009"/>
<path opacity="0.5" d="M417.059 269.365L418.484 272.391C418.574 272.582 418.747 272.65 418.948 272.573L422.132 271.352C422.639 271.157 422.84 271.87 422.475 272.557L420.17 276.883C420.025 277.155 419.959 277.466 419.993 277.713L420.537 281.628C420.623 282.25 420.094 283.067 419.642 283.011L416.793 282.659C416.614 282.637 416.399 282.761 416.219 282.991L413.371 286.632C412.918 287.211 412.389 287.004 412.475 286.282L413.019 281.739C413.053 281.452 412.987 281.219 412.842 281.114L410.537 279.449C410.171 279.185 410.373 278.239 410.88 277.849L414.064 275.393C414.265 275.238 414.439 274.969 414.528 274.675L415.953 270.005C416.179 269.262 416.833 268.885 417.059 269.365Z" fill="white"/>
<path d="M428.571 51.0398L421.409 54.1086L419.875 61.7488C419.687 62.686 418.506 63.0005 417.877 62.281L412.746 56.4176L405.006 57.3207C404.057 57.4318 403.393 56.4059 403.882 55.5843L407.873 48.8921L404.622 41.8101C404.223 40.941 404.994 39.993 405.926 40.2044L413.524 41.9319L419.255 36.6518C419.957 36.004 421.098 36.4439 421.185 37.3955L421.89 45.1557L428.682 48.9745C429.515 49.4431 429.449 50.6635 428.571 51.0398Z" fill="#E0E0E0"/>
<path d="M389.066 37.7897C389.006 37.8713 388.931 37.9438 388.846 38.0065C388.535 38.2332 388.13 38.2619 387.789 38.0836L383.797 35.9852L379.805 38.0845C379.465 38.2637 379.06 38.2341 378.75 38.0074C378.438 37.7808 378.285 37.4053 378.35 37.0263L379.112 32.5813L375.883 29.4336C375.608 29.1657 375.51 28.7715 375.628 28.4059C375.747 28.0394 376.059 27.7778 376.437 27.7232L380.9 27.0736L382.896 23.0299C383.065 22.6867 383.41 22.4717 383.794 22.4699C384.179 22.4699 384.524 22.6841 384.694 23.0299L386.69 27.0736L391.154 27.7214C391.535 27.7769 391.845 28.0386 391.963 28.4032C392.083 28.7697 391.985 29.1666 391.71 29.4318L391.709 29.4327L388.48 32.5804L389.244 37.0254C389.292 37.3005 389.225 37.5738 389.066 37.7897ZM376.278 28.4865C376.254 28.5188 376.235 28.5573 376.221 28.5977C376.176 28.7392 376.212 28.8844 376.318 28.9883L379.782 32.3653L378.964 37.1321C378.94 37.2781 378.996 37.417 379.115 37.5039C379.236 37.5908 379.385 37.6016 379.516 37.5335L383.797 35.2818L388.078 37.5308C388.21 37.5998 388.36 37.589 388.479 37.5021C388.601 37.417 388.653 37.2772 388.63 37.1294L387.812 32.3626L391.276 28.9856C391.375 28.8862 391.417 28.7365 391.372 28.5959C391.327 28.4552 391.212 28.3584 391.065 28.3378L386.279 27.6425L384.137 23.3041C384.072 23.1715 383.944 23.0926 383.796 23.0917C383.648 23.0926 383.525 23.1706 383.455 23.3041L381.315 27.6425L376.528 28.3387C376.424 28.3548 376.336 28.4077 376.278 28.4865Z" fill="#E0E0E0"/>
<path d="M339.175 97.664C332.429 93.7539 323.15 94.287 312.903 100.203C292.273 112.114 275.549 141.3 275.549 165.394C275.549 177.516 279.793 186.018 286.633 189.967C288.214 190.88 294.419 194.422 294.414 194.457C293.736 199.097 291.8 203.994 285.711 207.592C285.321 207.822 285.568 208.201 285.911 208.404C286.053 208.488 295.03 213.669 295.38 213.871C295.52 213.951 295.675 214.003 295.809 214.003C305.131 214.019 315.931 207.737 318.937 194.698C320.065 194.167 321.205 193.578 322.36 192.911C342.991 181.001 359.714 151.815 359.714 127.721C359.714 115.597 355.476 107.077 348.638 103.121C347.047 102.199 340.749 98.5752 339.175 97.664Z" fill="#344054"/>
<path d="M322.361 105.663C301.732 117.574 285.007 146.76 285.007 170.854C285.007 187.199 292.709 196.989 304.101 197.883C303.676 203.082 302.159 208.923 295.169 213.053C294.617 213.379 295.34 214.003 295.809 214.004C305.131 214.019 315.931 207.738 318.936 194.699C320.064 194.168 321.204 193.579 322.359 192.912C342.989 181.002 359.713 151.816 359.713 127.722C359.714 103.629 342.991 93.753 322.361 105.663Z" fill="#475467"/>
<path d="M295.17 213.053C294.832 213.262 294.984 213.577 295.263 213.797C294.146 213.157 286.044 208.488 285.915 208.407C285.566 208.197 285.321 207.825 285.717 207.592C291.807 203.994 293.738 199.093 294.414 194.46L295.45 195.065L296.392 195.625C298.698 196.905 301.282 197.662 304.099 197.883C303.68 203.076 302.155 208.919 295.17 213.053Z" fill="#1D2939"/>
<path d="M318.424 174.623C317.424 173.918 316.926 172.645 316.926 170.804C316.926 168.966 317.416 167.145 318.396 165.346C319.377 163.545 320.629 162.205 322.154 161.325C323.679 160.445 324.931 160.338 325.911 161.008C326.891 161.677 327.381 162.93 327.381 164.769C327.381 166.609 326.882 168.459 325.883 170.317C324.885 172.176 323.641 173.535 322.154 174.394C320.665 175.252 319.421 175.33 318.424 174.623ZM317.089 125.914L327.218 120.066L325.529 154.22L318.778 158.118L317.089 125.914Z" fill="#F9FAFB"/>
<path opacity="0.2" d="M327.346 189.634C338.349 181.566 347.832 168.789 353.64 155.064C342.638 163.131 333.154 175.908 327.346 189.634Z" fill="#101828"/>
<path d="M397.697 236.324C393.885 236.364 391.045 233.697 389.262 230.336C400.691 216.278 408.423 197.553 408.423 181.176C408.423 169.03 404.17 160.502 397.311 156.554C395.728 155.643 389.442 152.02 387.861 151.107C381.116 147.21 371.846 147.748 361.609 153.659C340.979 165.569 324.255 194.755 324.255 218.849C324.255 230.971 328.491 239.489 335.326 243.447C336.92 244.37 343.2 247.976 344.758 248.884C351.509 252.818 360.802 252.294 371.069 246.366C373.745 244.821 376.353 242.98 378.87 240.902C385.81 246.392 394.27 240.408 397.621 237.543C398.069 237.159 398.118 236.319 397.697 236.324Z" fill="#E0E0E0"/>
<path d="M354.537 250.833C342.052 250.833 334.298 240.669 334.298 224.308C334.298 200.439 350.925 171.422 371.361 159.622C377.075 156.322 382.54 154.65 387.602 154.65C400.086 154.65 407.841 164.814 407.841 181.176C407.841 196.834 400.549 215.53 388.81 229.97L388.567 230.269L388.747 230.61C390.853 234.578 393.908 236.804 397.37 236.902C397.344 236.974 397.302 237.049 397.242 237.1C394.857 239.138 390.126 242.557 385.224 242.557H385.223C383.018 242.557 381.002 241.847 379.23 240.445L378.861 240.153L378.498 240.453C375.958 242.551 373.361 244.371 370.777 245.861C365.063 249.161 359.599 250.833 354.537 250.833Z" fill="#F9FAFB"/>
<path d="M387.599 154.067L387.601 155.231C399.726 155.232 407.258 165.173 407.258 181.175C407.258 196.705 400.016 215.261 388.358 229.602L387.871 230.2L388.233 230.882C390.172 234.537 392.9 236.783 396.028 237.347C393.538 239.328 389.427 241.975 385.224 241.975C383.154 241.975 381.259 241.306 379.592 239.988L378.855 239.405L378.129 240.003C375.613 242.08 373.042 243.881 370.488 245.356C364.863 248.604 359.496 250.251 354.537 250.251C342.412 250.251 334.88 240.31 334.88 224.307C334.88 200.623 351.376 171.832 371.652 160.125C377.277 156.877 382.643 155.23 387.6 155.23L387.599 154.067ZM387.602 154.067C382.617 154.067 377.006 155.69 371.069 159.118C350.439 171.028 333.715 200.216 333.715 224.308C333.715 241.468 342.2 251.416 354.536 251.416C359.521 251.416 365.133 249.793 371.069 246.365C373.745 244.82 376.353 242.979 378.87 240.901C380.912 242.517 383.088 243.139 385.224 243.139C390.348 243.139 395.256 239.564 397.621 237.542C398.069 237.16 398.119 236.323 397.7 236.323C397.699 236.323 397.699 236.323 397.697 236.323C397.668 236.323 397.64 236.324 397.612 236.324C393.843 236.324 391.031 233.672 389.262 230.337C400.691 216.278 408.423 197.553 408.423 181.176C408.423 164.016 399.937 154.069 387.602 154.067Z" fill="#0BA5EC"/>
<path d="M369.174 206.845C370.026 204.707 371.271 202.175 372.904 199.246C374.102 197.103 374.982 195.372 375.545 194.055C376.108 192.739 376.388 191.451 376.388 190.192C376.388 188.402 375.853 187.296 374.782 186.872C373.712 186.45 372.286 186.752 370.508 187.779C368.802 188.764 367.286 190.111 365.961 191.819C364.636 193.528 363.52 195.492 362.612 197.71L356.024 196.358C357.549 192.381 359.608 188.796 362.204 185.603C364.799 182.41 367.876 179.787 371.434 177.733C375.609 175.323 378.957 174.576 381.481 175.49C384.003 176.405 385.265 178.967 385.265 183.179C385.265 185.164 385.02 187.048 384.53 188.83C384.04 190.615 383.441 192.231 382.733 193.68C382.025 195.13 381.108 196.857 379.983 198.862C378.64 201.234 377.66 203.143 377.043 204.588C376.425 206.034 376.117 207.532 376.117 209.079L367.894 213.826C367.894 211.313 368.321 208.984 369.174 206.845ZM368.302 229.892C367.304 229.186 366.804 227.914 366.804 226.073C366.804 224.235 367.295 222.415 368.275 220.614C369.256 218.813 370.507 217.474 372.032 216.594C373.557 215.713 374.809 215.608 375.789 216.276C376.77 216.944 377.259 218.198 377.259 220.037C377.259 221.877 376.76 223.726 375.761 225.585C374.763 227.445 373.519 228.803 372.031 229.662C370.544 230.522 369.3 230.599 368.302 229.892Z" fill="#475467"/>
<path d="M179.896 166.029L138.68 189.894L155.052 217.727C155.408 218.529 155.967 219.111 156.618 219.48C158.574 220.588 170.138 227.285 170.777 227.655C172.733 228.787 175.557 227.989 176.306 225.452L194.083 174.219L179.896 166.029Z" fill="#0BA5EC"/>
<path opacity="0.2" d="M179.896 166.029L138.68 189.894L155.052 217.727C155.408 218.529 155.967 219.111 156.618 219.48C158.574 220.588 170.138 227.285 170.777 227.655C172.733 228.787 175.557 227.989 176.306 225.452L194.083 174.219L179.896 166.029Z" fill="#101828"/>
<path d="M152.867 198.085L169.239 225.918C170.666 229.124 175.313 228.819 176.307 225.453L194.083 174.22L152.867 198.085Z" fill="#0BA5EC"/>
<path d="M225.884 23.279L70.4525 113.012C68.4822 114.15 66.8846 116.917 66.8846 119.191V227.066C66.8846 229.341 68.4912 232.093 70.4722 233.21L83.2528 240.375C85.2347 241.494 88.4379 241.478 90.4082 240.34L245.842 150.607C247.812 149.469 249.409 146.703 249.409 144.427V36.5532C249.409 34.2783 247.802 31.5267 245.821 30.4085L233.039 23.2432C231.058 22.1249 227.854 22.1411 225.884 23.279Z" fill="#0BA5EC"/>
<path opacity="0.3" d="M249.361 35.9063C249.081 34.1098 247.615 33.4674 245.835 34.4889L90.4154 124.228C89.4271 124.804 88.5373 125.776 87.894 126.897L68.0001 115.549C68.6435 114.477 69.5 113.555 70.4561 113.012L225.892 23.2727C227.854 22.1357 231.05 22.1196 233.044 23.2396L245.818 30.4022C247.615 31.4245 249.113 33.781 249.361 35.9063Z" fill="white"/>
<path d="M86.8403 238.694V130.82C86.8403 128.545 88.4379 125.778 90.4082 124.64L245.841 34.9064C247.811 33.7685 249.408 34.6904 249.408 36.9663V144.841C249.408 147.117 247.81 149.883 245.841 151.021L90.4082 240.753C88.4379 241.892 86.8403 240.969 86.8403 238.694Z" fill="#0BA5EC"/>
<path opacity="0.2" d="M90.4082 240.341C88.5096 241.443 85.0403 241.483 83.2474 240.383L70.4731 233.205C68.4956 232.101 66.8801 229.349 66.8801 227.074V119.19C66.8801 118.004 67.3254 116.702 68.0181 115.549L87.8949 126.897C87.2355 128.001 86.8403 129.27 86.8403 130.407V238.274C86.8403 240.358 88.3089 241.56 90.4082 240.341Z" fill="#101828"/>
<path d="M130.452 152.335L128.895 151.437C127.689 150.74 126.203 150.74 124.997 151.437L115.532 156.9V143.955L133.061 133.834C134.749 132.859 135.79 131.058 135.79 129.108V121.848C135.79 119.898 134.749 118.097 133.061 117.122C131.372 116.148 129.293 116.148 127.605 117.122L103.292 131.16C100.362 132.852 98.5565 135.979 98.5565 139.362V206.733C98.5565 208.683 99.5967 210.485 101.286 211.459C102.974 212.433 105.053 212.433 106.741 211.459L112.804 207.959C114.492 206.984 115.532 205.183 115.532 203.233V176.812L130.452 168.197C131.658 167.501 132.402 166.213 132.402 164.821V155.711C132.403 154.319 131.659 153.031 130.452 152.335Z" fill="#E0E0E0"/>
<path opacity="0.1" d="M107.263 211.153L106.743 211.458C105.901 211.951 104.951 212.193 104.01 212.193C103.07 212.193 102.129 211.951 101.287 211.458C99.5931 210.49 98.5537 208.68 98.5537 206.736V139.366C98.5537 137.771 98.9659 136.248 99.6917 134.895L105.148 138.04C104.414 139.393 104.01 140.925 104.01 142.511V209.254C104.01 210.92 105.82 211.977 107.263 211.153Z" fill="#101828"/>
<path d="M115.533 143.956V163.201L130.428 154.602C131.306 154.095 132.403 154.728 132.403 155.743V164.835C132.403 166.221 131.664 167.502 130.463 168.194L115.532 176.815V203.243C115.532 205.188 114.494 206.985 112.81 207.957L107.291 211.144C105.834 211.985 104.014 210.934 104.014 209.252V142.513C104.014 139.13 105.819 136.003 108.749 134.311L132.832 120.406C134.146 119.647 135.789 120.596 135.789 122.113V129.132C135.789 131.068 134.757 132.855 133.081 133.823L115.533 143.956Z" fill="#F9FAFB"/>
<path d="M167.546 103.257C167.08 101.671 166.023 100.318 164.589 99.4936C163.585 98.9202 162.474 98.6335 161.363 98.6335C160.252 98.6335 159.141 98.9202 158.138 99.4936L152.108 102.979C150.54 103.884 149.42 105.407 149.034 107.181L131.061 189.022C130.747 190.456 131.401 191.916 132.664 192.651L134.313 193.601C135.352 194.201 136.634 194.201 137.673 193.601L144.94 189.407C145.88 188.861 146.678 188.009 147.323 186.854C147.968 185.707 148.416 184.569 148.658 183.449L151.579 168.521L166.273 160.036L167.797 166.102C168.119 167.034 168.576 167.679 169.185 168.038C169.795 168.396 174.033 170.824 174.642 171.192C175.251 171.55 176.058 171.442 177.052 170.869L185.923 165.744L167.546 103.257ZM155.602 147.905L158.756 131.669C158.819 131.391 158.881 131.105 158.944 130.809L162.277 144.043L155.602 147.905Z" fill="#E0E0E0"/>
<path opacity="0.1" d="M174.57 171.147C173.773 170.672 169.777 168.387 169.185 168.038C168.576 167.679 168.119 167.034 167.797 166.102L166.273 160.036L170.341 157.689L173.253 169.247C173.567 170.143 173.997 170.77 174.57 171.147Z" fill="#101828"/>
<path opacity="0.1" d="M167.734 147.197L162.277 144.043L158.944 130.809C158.944 130.809 158.944 130.809 158.944 130.8C158.944 130.782 158.953 130.764 158.953 130.746C159.24 129.456 159.527 127.986 159.84 126.356C160.225 124.322 160.584 122.153 160.924 119.833C161.31 121.697 161.695 123.417 162.08 124.985C162.465 126.553 162.824 127.897 163.164 129.026L167.734 147.197Z" fill="#101828"/>
<path opacity="0.1" d="M136.616 191.737C136.401 192.713 137.324 193.502 138.202 193.242L138.184 193.314L137.673 193.601C136.634 194.201 135.352 194.201 134.313 193.601L132.664 192.651C131.401 191.916 130.747 190.456 131.061 189.022L149.034 107.181C149.196 106.42 149.509 105.703 149.93 105.058L155.387 108.212C154.957 108.848 154.652 109.565 154.491 110.326L136.616 191.737Z" fill="#101828"/>
<path d="M185.926 165.743L177.051 170.867C176.058 171.442 175.256 171.548 174.647 171.187C174.036 170.827 173.574 170.181 173.258 169.251L170.344 157.686L151.577 168.521L148.663 183.451C148.415 184.568 147.97 185.703 147.326 186.857C146.682 188.01 145.886 188.862 144.938 189.409L138.51 193.12C137.546 193.678 136.378 192.824 136.618 191.736L154.49 110.329C154.879 108.559 155.994 107.035 157.563 106.129L163.359 102.783C165.123 101.764 167.376 102.665 167.951 104.62L185.926 165.743ZM167.735 147.195L163.162 129.026C162.823 127.901 162.462 126.554 162.077 124.984C161.692 123.415 161.31 121.698 160.925 119.834C160.587 122.151 160.225 124.324 159.842 126.352C159.458 128.383 159.096 130.157 158.757 131.673L154.219 154.999L167.735 147.195Z" fill="#F9FAFB"/>
<path d="M228.402 134.438C229.934 131.812 231.305 129.026 232.515 126.069C233.724 123.112 234.737 120.066 235.561 116.948C236.385 113.83 237.022 110.64 237.461 107.378C237.9 104.117 238.124 100.856 238.124 97.5852C238.124 92.1285 237.505 87.3887 236.278 83.3656C235.041 79.3516 233.312 76.2514 231.081 74.0652C230.275 73.2856 229.423 72.6316 228.501 72.1119C227.605 71.6012 224.012 69.5135 223.125 69.0028C221.458 68.0261 219.594 67.4796 217.543 67.3631C214.389 67.1839 210.894 68.2053 207.059 70.4184C203.215 72.6316 199.712 75.6421 196.558 79.4501C193.395 83.2581 190.689 87.55 188.44 92.3256C186.191 97.1013 184.453 102.209 183.226 107.647C181.989 113.086 181.38 118.552 181.38 124.044C181.38 129.537 181.989 134.294 183.226 138.317C184.453 142.331 186.191 145.441 188.44 147.636C189.247 148.433 190.125 149.087 191.048 149.607C191.935 150.109 195.483 152.169 196.361 152.68C198.046 153.666 199.927 154.212 202.015 154.32C205.169 154.472 208.672 153.442 212.516 151.229C214.147 150.288 215.697 149.213 217.166 148.003L219.388 150.557C219.72 150.888 220.06 151.157 220.41 151.354C221.037 151.721 225.499 154.284 225.839 154.49C226.476 154.866 227.139 155.028 227.838 154.974C228.913 154.893 230.131 154.463 231.484 153.675L240.901 148.245L228.402 134.438ZM219.998 111.948C219.361 115.317 218.456 118.39 217.265 121.159C216.082 123.937 214.631 126.365 212.919 128.443C211.199 130.531 209.246 132.207 207.059 133.47C205.025 134.653 203.198 135.235 201.576 135.244C200.707 133.927 200.017 132.207 199.506 130.074C198.87 127.431 198.556 124.223 198.556 120.433C198.556 116.67 198.87 113.113 199.506 109.735C200.133 106.366 201.047 103.293 202.23 100.524C203.413 97.7554 204.873 95.3093 206.602 93.2037C208.332 91.0892 210.303 89.3957 212.516 88.1144C214.505 86.9676 216.297 86.3941 217.901 86.3941C218.779 87.7202 219.478 89.4584 219.998 91.6088C220.625 94.252 220.947 97.4508 220.947 101.205C220.947 104.995 220.625 108.57 219.998 111.948Z" fill="#E0E0E0"/>
<path opacity="0.1" d="M196.137 152.546C194.999 151.892 191.872 150.073 191.048 149.607C190.125 149.087 189.247 148.433 188.44 147.636C186.191 145.441 184.453 142.331 183.226 138.317C181.989 134.294 181.38 129.537 181.38 124.044C181.38 118.552 181.989 113.086 183.226 107.647C184.364 102.612 185.941 97.8629 187.957 93.3919L193.413 96.5458C191.397 101.008 189.82 105.757 188.682 110.801C187.446 116.24 186.837 121.706 186.837 127.198C186.837 132.69 187.446 137.448 188.682 141.462C189.91 145.485 191.648 148.594 193.897 150.79C194.596 151.471 195.349 152.062 196.137 152.546Z" fill="#101828"/>
<path opacity="0.1" d="M222.721 88.6879C221.539 87.2901 220.087 86.5285 218.376 86.4031C218.223 86.3923 218.062 86.4004 217.905 86.4004C218.781 87.7255 219.479 89.4611 219.998 91.6088C220.625 94.252 220.947 97.4507 220.947 101.205C220.947 104.995 220.625 108.57 219.998 111.948C219.361 115.317 218.456 118.39 217.265 121.159C216.082 123.936 214.631 126.365 212.919 128.443C211.199 130.531 209.246 132.207 207.059 133.47C205.025 134.653 203.198 135.235 201.576 135.244C201.773 135.567 201.997 135.862 202.23 136.14C203.413 137.547 204.873 138.299 206.602 138.389C208.332 138.488 210.303 137.905 212.516 136.624C214.702 135.36 216.655 133.685 218.376 131.597C220.087 129.51 221.539 127.081 222.721 124.313C223.913 121.544 224.818 118.471 225.454 115.093C226.081 111.724 226.404 108.14 226.404 104.35C226.404 100.596 226.081 97.397 225.454 94.7538C224.818 92.1106 223.913 90.0856 222.721 88.6879Z" fill="#101828"/>
<path opacity="0.1" d="M218.716 146.659C218.206 147.125 217.695 147.573 217.166 148.003L219.388 150.557C219.72 150.888 220.06 151.157 220.41 151.354C221.019 151.712 225.221 154.123 225.795 154.463C225.472 154.266 225.15 154.015 224.845 153.702L218.716 146.659Z" fill="#101828"/>
<path d="M240.9 148.241L231.483 153.678C230.127 154.461 228.914 154.892 227.842 154.972C226.769 155.051 225.77 154.629 224.843 153.703L218.712 146.656C216.792 148.426 214.726 149.949 212.512 151.227C208.673 153.444 205.172 154.473 202.01 154.316C198.849 154.16 196.144 152.984 193.897 150.787C191.649 148.591 189.911 145.483 188.68 141.464C187.449 137.447 186.834 132.69 186.834 127.196C186.834 121.703 187.449 116.236 188.68 110.797C189.911 105.358 191.649 100.25 193.897 95.476C196.144 90.7012 198.848 86.4093 202.01 82.6031C205.171 78.7951 208.673 75.7837 212.512 73.567C216.351 71.3503 219.846 70.3333 222.996 70.5125C226.147 70.6944 228.839 71.8771 231.077 74.0625C233.311 76.2487 235.045 79.3515 236.276 83.3692C237.507 87.3878 238.124 92.1267 238.124 97.5851C238.124 100.854 237.903 104.119 237.463 107.38C237.023 110.643 236.39 113.832 235.566 116.951C234.741 120.069 233.725 123.109 232.517 126.065C231.309 129.025 229.937 131.816 228.401 134.44L240.9 148.241ZM198.555 120.429C198.555 124.219 198.872 127.434 199.504 130.078C200.136 132.722 201.045 134.743 202.232 136.145C203.417 137.547 204.873 138.296 206.601 138.394C208.329 138.492 210.299 137.902 212.513 136.624C214.703 135.36 216.657 133.683 218.374 131.597C220.089 129.512 221.541 127.083 222.726 124.312C223.911 121.541 224.821 118.47 225.453 115.097C226.085 111.724 226.402 108.144 226.402 104.354C226.402 100.598 226.085 97.3988 225.453 94.7565C224.821 92.1151 223.911 90.091 222.726 88.6897C221.541 87.2883 220.089 86.5276 218.374 86.404C216.657 86.2821 214.703 86.8547 212.513 88.1189C210.299 89.3975 208.329 91.0909 206.601 93.2001C204.873 95.312 203.417 97.7518 202.232 100.522C201.045 103.293 200.136 106.365 199.504 109.738C198.872 113.109 198.555 116.674 198.555 120.429Z" fill="#F9FAFB"/>
</svg>
