<svg width="1440" height="400" viewBox="0 0 1440 400" fill="none" xmlns="http://www.w3.org/2000/svg">
<mask id="mask0_471_37393" style="mask-type:alpha" maskUnits="userSpaceOnUse" x="0" y="-520" width="1440" height="1440">
<g opacity="0.2">
<rect width="1440" height="1440" transform="translate(0 -520)" fill="url(#paint0_linear_471_37393)"/>
</g>
</mask>
<g mask="url(#mask0_471_37393)">
<path fill-rule="evenodd" clip-rule="evenodd" d="M527.8 5.30533C527.717 -13.2692 494.951 -34.1567 480.955 -44.9255C453.28 -66.2247 424.496 -85.8935 395.98 -105.876C367.463 -125.859 338.87 -145.788 311.678 -167.726C294.021 -181.967 273.276 -198.007 261.301 -218.342C235.793 -261.677 316.22 -255.242 337.053 -256.19C390.052 -258.611 450.842 -257.506 500.52 -280.073C530.176 -293.545 542.001 -316.138 535.632 -349.068C533.579 -359.777 527.502 -372.1 532.65 -382.533C538.147 -393.676 550.793 -400.106 561.29 -404.417C599.573 -420.126 643.59 -421.947 684.097 -423.918C727.775 -426.085 771.863 -425.451 815.234 -425.619C833.624 -425.69 852.83 -432.661 870.342 -438.327C893.3 -445.754 915.986 -454.096 938.754 -462.161C988.843 -479.864 1040.46 -498.509 1093.45 -503.005C1126.64 -505.822 1162.91 -502.014 1188.69 -477.513C1201.63 -465.211 1208.41 -446.924 1215.89 -430.679C1224.95 -411.053 1233.65 -391.238 1243.29 -371.922C1274.36 -309.709 1318.72 -248.915 1390.71 -245.86C1401.6 -245.399 1412.3 -246.9 1423.14 -247.181C1430.04 -247.355 1436.19 -245.594 1438.75 -237.973C1445.2 -218.856 1424.93 -188.679 1416.61 -173.512C1398.41 -140.312 1377.88 -108.601 1358.64 -76.0672C1345.92 -54.5513 1323.9 -25.1484 1323.67 0.99347C1323.46 24.2861 1352.82 41.1218 1368.8 52.5948C1383.78 63.3364 1410.91 78.3683 1412.56 100.22C1413.35 110.815 1406.73 119.596 1399.82 126.411C1387.7 138.328 1373.74 146.735 1362.84 160.331C1344.96 182.638 1330.02 213.33 1332.45 243.388C1334.14 264.216 1345.4 277.856 1359.72 290.895C1365.74 296.376 1370.63 300.255 1370.95 309.155C1371.46 323.288 1366.21 338.244 1361.89 351.347C1346.43 398.241 1324.48 443.586 1300.05 485.924C1287.85 507.083 1274.66 528.176 1258.48 546.225C1247.88 558.077 1233.58 572.183 1217.42 572.167C1198.7 572.167 1178.89 565.038 1160.7 559.708C1126.71 549.746 1093.14 538.23 1059.7 526.416C982.372 499.082 905.769 469.535 829.892 437.774C776.447 415.364 721.867 392.922 671.619 363.129C661.82 357.278 652.57 350.456 643.996 342.756C634.834 334.668 623.466 331.05 611.938 328.352C540.39 311.609 462.005 324.463 390.16 332.523C371.924 334.566 353.688 336.619 335.4 338.049C319.679 339.278 300.858 342.805 285.578 337.507C255.471 327.079 281.791 288.647 292.918 272.986C332.095 217.848 382.64 171.198 429.49 123.572C451.766 100.892 474.21 78.2708 495.274 54.3065C506.243 41.8476 527.871 21.5885 527.8 5.30533Z" stroke="white"/>
<path fill-rule="evenodd" clip-rule="evenodd" d="M541.3 2.1738C529.292 -17.4808 508.224 -32.0079 490.735 -45.6795C465.568 -65.3612 439.611 -83.9492 414.043 -103.073C389.868 -121.158 365.641 -139.448 343.253 -159.985C329.601 -172.509 312.472 -187.485 306.006 -206.008C291.979 -246.157 367.438 -240.065 386.067 -241.116C432.379 -243.715 484.885 -244.31 527.73 -265.449C554.484 -278.649 565.476 -300.54 559.769 -330.931C557.797 -341.446 554.243 -350.424 558.742 -360.884C563.945 -372.991 575.912 -380.539 586.883 -385.867C621.248 -402.56 661.87 -406.106 699.122 -409.057C737.606 -412.105 777.704 -414.255 814.951 -412.024C829.845 -411.136 846.989 -416.177 861.73 -420.043C884.411 -425.999 906.861 -432.87 929.429 -439.259C975.294 -452.254 1022.35 -464.772 1070.07 -466.196C1104.51 -467.225 1140.43 -461.648 1169.09 -440.093C1198.13 -418.235 1211.02 -384.351 1227.13 -352.14C1254.94 -296.452 1292.51 -228.744 1356.87 -216.978C1366.63 -215.191 1376.01 -216.16 1385.75 -215.722C1390.77 -215.5 1396.47 -214.796 1399.02 -209.582C1405.62 -196.045 1387.53 -171.296 1381.45 -160.927C1364.63 -132.274 1345.72 -105.022 1328.1 -76.9212C1314.11 -54.608 1296.37 -29.815 1290.95 -3.36523C1284.38 28.7319 1327.31 51.5702 1342.4 74.1703C1368.57 113.36 1318.99 135.69 1294.55 154.375C1266.48 175.827 1243.31 214.963 1268.47 248.154C1278.1 260.846 1289.94 268.41 1294.24 284.973C1300.96 310.876 1295.88 340.477 1290.42 366.082C1282.21 404.574 1269.2 442.648 1251.52 477.437C1238.86 502.343 1217.85 541.398 1187.08 538.469C1166.36 536.514 1145.3 529.372 1125.13 523.059C1094.93 513.611 1065.11 502.841 1035.45 491.655C966.984 465.904 899.27 437.51 832.886 406.279C787.591 384.962 661.243 297.849 651.736 294.741C623.39 285.482 591.161 287.112 561.937 288.546C523.062 290.452 484.382 295.39 445.733 299.966C427.335 302.131 408.846 304.779 390.351 305.846C377.187 306.604 359.899 307.254 348.368 299.181C325.862 283.43 350.936 247.391 361.306 232.144C393.073 185.4 433.257 144.922 470.936 103.533C489.426 83.2125 508.198 62.9244 524.983 40.9741C531.752 32.1105 548.722 14.3131 541.3 2.1738Z" stroke="white"/>
<path fill-rule="evenodd" clip-rule="evenodd" d="M557.913 -7.90598C525.118 -47.2371 479.856 -76.489 440.791 -109.337C421.185 -125.829 401.455 -142.77 384.544 -162.414C375.747 -172.629 364.763 -185.546 363.068 -199.785C358.539 -237.875 426.551 -232.725 446.907 -234.171C486.265 -236.976 530.726 -239.105 566.432 -258.543C588.247 -270.426 598.99 -289.929 594.913 -315.563C593.105 -326.936 590.291 -336.598 594.913 -347.766C599.596 -359.08 609.353 -367.063 619.234 -373.048C647.627 -390.26 682.912 -395.763 714.879 -399.863C752.38 -404.638 790.163 -406.503 827.923 -405.441C860.995 -404.526 893.907 -414.822 926.198 -421.608C968.975 -430.593 1012.53 -438.441 1056.3 -437.255C1090.87 -436.313 1125.72 -428.909 1155.27 -409.233C1185.3 -389.193 1203.36 -359.199 1219.64 -326.833C1244.24 -277.905 1274.91 -212.339 1328.9 -193.756C1336.75 -191.048 1344.07 -190.751 1352.17 -190.279C1356.1 -190.052 1361.18 -189.981 1363.13 -185.654C1367.83 -175.234 1350.47 -155.032 1345.63 -147.991C1330.17 -125.515 1313.42 -104.051 1297.57 -81.8725C1282.78 -61.167 1266.68 -39.5896 1257.49 -15.3259C1242.87 23.3174 1289.61 45.913 1288.3 82.7364C1287.48 105.597 1266.73 121.992 1250.3 133.333C1230.07 147.279 1200.93 156.448 1190.81 181.898C1183.26 200.854 1195.1 211.887 1204.21 226.272C1219.66 250.644 1220.71 283.681 1219.11 311.893C1216.94 350.017 1208.47 388.703 1194.06 423.745C1187.52 439.63 1179.52 456.154 1167.74 468.492C1156.71 480.055 1146.26 483.018 1131.51 480.651C1086.36 473.394 1040.78 453.165 997.481 435.097C943.083 412.393 889.434 387.328 837.388 359.126C801.897 339.894 765.606 319.546 734.455 292.975C726.336 286.048 718.022 278.52 712.086 269.383C707.597 262.516 705.692 256.845 698.128 252.924C675.707 241.306 644.52 244.345 620.497 245.553C582.085 247.475 543.857 252.593 505.681 257.203C483.404 259.911 441.438 268.43 423.649 247.995C408.295 230.35 426.823 200.264 436.288 184.72C460.228 145.411 491.025 110.911 519.598 75.3869C532.693 59.1064 546.302 42.7013 557.117 24.601C559.879 19.9865 564.306 13.8718 565.066 8.26626C565.919 1.84287 561.939 -3.05865 557.913 -7.90598Z" stroke="white"/>
<path fill-rule="evenodd" clip-rule="evenodd" d="M560.733 1.25021C530.43 -33.5257 493.922 -62.0955 461.39 -94.6383C446.804 -109.229 432.074 -124.536 420.959 -142.336C414.981 -151.908 408.632 -163.957 410.281 -175.854C415.011 -210.001 470.949 -206.917 493.548 -208.917C527.127 -211.855 565.705 -214.815 595.396 -233.227C614.847 -245.287 622.14 -263.098 618.509 -286.068C614.61 -310.709 623.326 -328.595 643.162 -342.341C668.031 -359.561 699.423 -366.58 728.298 -371.566C763.087 -377.545 798.316 -380.196 833.557 -379.485C867.83 -378.791 901.035 -384.851 935.082 -388.792C980.224 -394.011 1026.81 -396.586 1071.45 -385.886C1110.31 -376.569 1145.41 -356.037 1171.72 -324.286C1199.2 -291.147 1212.81 -249.395 1235.12 -212.733C1249.04 -189.865 1268.45 -159.615 1294.46 -150.726C1303.14 -147.762 1318.94 -151.762 1312.02 -137.176C1308.06 -128.834 1300.64 -121.517 1294.79 -114.698C1285.33 -103.679 1275.55 -92.9634 1265.93 -82.096C1245.43 -58.9301 1223.47 -35.271 1208.11 -7.83947C1188.74 26.6979 1217.53 53.2785 1214.02 88.2983C1212.13 107.144 1199.71 122.185 1186.58 134.001C1178.08 141.655 1168.77 148.284 1159.28 154.468C1149.36 160.929 1137.62 165.85 1128.98 174.203C1116.65 186.089 1122 200.16 1124.31 215.526C1128.38 242.531 1129.27 269.962 1126.97 297.198C1124.16 330.581 1117.56 364.917 1103.65 395.254C1098.25 407.065 1091.39 419.585 1081.22 427.504C1071.05 435.423 1060.52 434.881 1048.86 432.496C1014.28 425.45 979.772 409.054 946.967 393.514C905.909 374.061 865.658 352.321 827.219 327.589C800.686 310.515 774.066 292.07 751.868 268.921C745.411 262.183 739.269 254.969 734.302 246.915C730.892 241.391 729.063 234.264 724.122 230.112C708.663 217.152 677.625 221.022 659.495 221.776C623.311 223.277 587.697 230.416 551.56 232.15C531.837 233.099 500.949 235.483 486.465 217.765C472.844 201.109 485.181 174.875 493.322 158.826C509.321 127.269 530.815 99.155 550.081 69.821C558 57.7502 566.68 45.1212 571.811 31.3376C576.372 19.0555 568.499 10.1664 560.733 1.25021Z" stroke="white"/>
<path fill-rule="evenodd" clip-rule="evenodd" d="M568.186 1.81886C544.065 -28.7829 514.988 -55.9478 490.693 -87.0476C476.472 -105.26 451.983 -135.878 462.98 -161.555C475.046 -189.77 517.102 -190.538 541.412 -192.812C570.346 -195.518 604.325 -199.214 629.086 -216.832C636.918 -222.401 643.589 -229.773 646.417 -239.483C649.445 -249.875 646.135 -258.968 645.704 -269.37C644.801 -291.193 657.148 -308.713 673.488 -320.745C696.582 -337.756 725.46 -345.799 752.736 -351.406C783.638 -357.731 815.054 -360.849 846.533 -360.716C876.616 -360.607 906.382 -361.311 936.496 -362.123C975.878 -363.205 1015.82 -361.457 1054.02 -350.421C1091.65 -339.542 1125.87 -319.154 1152.74 -289.163C1178.96 -259.898 1196.65 -224.128 1212.14 -187.691C1220.93 -167.011 1235.79 -136.106 1256.76 -125.66C1266.08 -121.011 1275.23 -121.33 1265.32 -109.238C1252.83 -94.0134 1236 -81.7975 1221.54 -68.7753C1200.68 -49.9834 1179.29 -30.8234 1161.78 -8.48097C1150.6 5.78615 1145.62 19.6311 1146.39 38.1037C1146.98 52.176 1149.68 66.1021 1148.32 80.2285C1145.12 113.385 1120.37 136.123 1098.49 157.296C1084.41 170.914 1071.55 181.3 1064.31 200.671C1055.74 223.566 1052.14 248.473 1046.41 272.245C1040.12 298.349 1032.85 325.503 1019.12 348.495C1006.9 368.965 992.029 378.144 969.777 372.629C935.069 364.034 900.86 342.861 870.047 323.273C838.686 303.345 807.863 280.937 781.875 253.545C767.844 238.753 758.268 221.384 745.808 205.493C730.135 185.543 694.678 193.099 673.606 194.788C638.627 197.591 528.562 218.57 538.718 150.622C542.957 122.261 559.651 96.0869 571.86 71.0599C576.92 60.6735 584.243 48.2087 585.388 36.3068C586.635 23.3441 575.437 11.0308 568.186 1.81886Z" stroke="white"/>
<path fill-rule="evenodd" clip-rule="evenodd" d="M580.921 4.41725C562.489 -23.3142 540.43 -49.5131 524.614 -79.4647C514.354 -98.8621 504.279 -124.779 517.514 -145.303C532.453 -168.464 565.393 -173.863 589.596 -176.814C614.533 -179.852 644.303 -182.408 664.684 -199.97C671.169 -205.564 676.514 -213.107 677.509 -222.14C678.469 -230.804 675.76 -239.469 676.658 -248.29C678.669 -268.099 690.052 -284.421 704.729 -296.258C748.144 -331.279 812.762 -339.066 865.145 -339.981C891.364 -340.436 918.348 -338.048 944.737 -336.336C978.98 -334.116 1013.27 -329.351 1045.93 -317.865C1115.37 -293.453 1161.91 -239.312 1194.41 -171.941C1204.64 -150.735 1212.47 -127.79 1228.5 -110.749C1236.76 -101.949 1234.96 -95.6292 1226.51 -87.6039C1213.3 -75.0622 1197.19 -65.4772 1182.52 -55.0095C1161.67 -40.1231 1140.37 -25.0145 1121.93 -7.18217C1109.22 5.11042 1100.19 16.9535 1097.45 35.387C1095.5 48.5298 1095.95 61.9216 1094.78 75.1456C1092.54 100.267 1084.88 125.199 1071.33 146.036C1060.55 162.553 1047.73 177.564 1034.47 191.876C1017.24 210.51 1002.67 229.442 989.579 251.558C972.229 280.833 947.851 334.833 906.985 320.542C861.913 304.773 819.667 264.706 790.749 225.884C781.038 212.85 773.066 196.864 759.969 187.252C740.362 172.885 720.468 173.389 697.147 173.448C662.232 173.53 586.256 181.528 585.436 126.336C585.112 104.469 594.08 83.7938 598.374 62.761C603.216 39.2047 593.51 23.3164 580.921 4.41725Z" stroke="white"/>
<path fill-rule="evenodd" clip-rule="evenodd" d="M594.65 6.88975C576.418 -29.2533 535.535 -88.644 566.63 -128.835C583.055 -150.075 612.107 -158.057 636.478 -162.813C656.09 -166.661 679.743 -168.106 694.561 -184.416C705.453 -196.408 700.618 -213.859 704.791 -228.871C709.97 -247.481 721.858 -262.709 736.466 -274.154C777.287 -306.141 834.046 -315.957 883.152 -318.046C934.153 -320.211 990.347 -310.086 1038.34 -290.61C1098.18 -266.318 1143.01 -220.321 1174.36 -162.072C1180.14 -151.319 1185.4 -140.285 1190.95 -129.403C1194.69 -122.103 1200.22 -115.041 1203.16 -107.362C1208.06 -94.5587 1202.29 -84.093 1193.04 -75.7485C1179.73 -63.7351 1163.39 -55.185 1148.22 -46.1695C1127.48 -33.8314 1106.28 -21.7152 1086.98 -7.23957C1074.02 2.50104 1060.45 12.9939 1055.81 29.8938C1052.64 41.4202 1051.98 53.6284 1052.1 65.5661C1052.34 91.1623 1051.07 111.861 1039.75 135.303C1021.11 173.79 992.462 208.396 962.193 237.19C938.438 259.788 900.851 294.893 866.24 279.784C835.186 266.255 817.021 233.873 796.561 207.692C786.614 194.965 775.44 183.341 762.31 174.288C745.756 162.875 730.173 158.086 710.56 156.219C677.551 153.075 627.778 152.258 617.573 110.481C613.806 95.0639 615.957 79.0947 613.98 63.4773C611.399 42.8272 603.848 25.1209 594.65 6.88975Z" stroke="white"/>
<path fill-rule="evenodd" clip-rule="evenodd" d="M613.607 8.22812C600.625 -31.3194 583.569 -81.1601 614.926 -116.309C630.114 -133.336 651.479 -142.854 672.156 -149.967C686.965 -155.065 710.478 -156.566 719.557 -172.239C726.226 -183.772 727.149 -199.683 733.182 -212.041C741.471 -229.03 754.028 -243.023 768.76 -253.977C807.139 -282.522 857.126 -293.552 902.712 -296.71C1001.76 -303.563 1102.55 -248.982 1155.55 -159.182C1171.35 -132.415 1191.75 -103.924 1166.21 -76.5769C1138.33 -46.7429 1096.33 -32.7659 1063.04 -11.5673C1050.33 -3.47361 1034.12 6.25615 1027.03 20.9104C1022.76 29.7192 1022.47 40.7708 1022.28 50.4681C1021.76 75.1663 1019.82 97.3779 1010.41 120.424C995.869 156.038 972.689 188.895 946.42 215.809C923.512 239.278 890.842 266.858 857.572 249.939C832.063 236.937 815.885 209.341 796.064 188.998C774.007 166.342 746.729 151.076 716.772 143.616C687.631 136.378 655.669 131.497 640.312 100.748C635.044 90.1998 629.54 76.5424 627.565 64.8677C624.377 45.6188 619.709 26.6763 613.607 8.22812Z" stroke="white"/>
<path fill-rule="evenodd" clip-rule="evenodd" d="M634.747 8.50689C628.74 -31.4277 628.073 -73.0683 655.979 -104.543C669.002 -119.226 685.466 -129.658 702.114 -139.11C714.362 -146.064 727.011 -151.93 736.159 -163.331C744.634 -173.888 751.077 -186.145 759.26 -196.978C770.054 -211.333 782.969 -223.76 797.51 -233.782C833.957 -258.854 878.296 -270.58 920.714 -274.648C941.248 -276.625 963.522 -277.654 983.917 -272.265C1003.61 -267.065 1023.09 -258.843 1041.2 -249.256C1079.7 -228.896 1113.07 -199.079 1137.26 -161.382C1153.85 -135.524 1162.82 -110.381 1141.34 -84.1501C1117.12 -54.5824 1079.15 -38.2685 1047.86 -19.0784C1026.4 -5.91676 1002.34 6.98494 998.332 34.9548C995.139 57.2105 992.547 78.3342 984.287 99.3712C971.994 130.401 953.919 158.51 931.135 182.03C910.298 203.457 883.937 221.639 854.132 210.195C830.518 201.111 812.196 180.762 791.565 166.214C768.572 149.965 743.31 141.006 716.708 133.803C692.801 127.303 670.291 117.315 654.839 96.1105C651.677 91.7775 648.355 87.0598 645.917 82.2122C642.806 76.0268 643.047 69.8955 642.437 62.9627C640.845 44.6663 637.462 26.5812 634.747 8.50689Z" stroke="white"/>
<path fill-rule="evenodd" clip-rule="evenodd" d="M658.054 5.24294C658.567 -32.689 667.213 -68.5377 690.893 -98.0987C701.016 -110.745 713.105 -121.161 724.245 -132.748C733.214 -142.09 741.691 -150.77 752.004 -158.469C776.469 -176.697 796.353 -200.285 822.352 -216.517C857.059 -238.217 896.815 -250.212 936.263 -255.007C955.525 -257.351 975.423 -258.17 994.911 -255.523C1011.65 -253.25 1027.68 -245.269 1042.55 -237.105C1071.69 -221.112 1099.99 -198.381 1118.92 -169.623C1160.64 -106.22 1078.38 -60.1234 1036.16 -33.1284C1016.74 -20.7105 987.076 -6.32867 979.123 18.2685C973.438 35.8402 969.974 53.7103 962.652 70.7395C942.984 116.473 903.059 170.262 849.855 163.101C827.088 160.041 806.338 147.612 785.085 139.269C763.2 130.675 740.613 125.885 717.867 120.628C696.609 115.719 679.666 108.731 665.935 89.9984C659.372 81.0525 659.952 70.3434 659.367 59.3686C658.413 41.3412 657.823 23.2107 658.054 5.24294Z" stroke="white"/>
<path fill-rule="evenodd" clip-rule="evenodd" d="M679.276 0.384393C687.824 -56.8704 719.569 -119.376 766.248 -152.627C821.155 -191.741 880.639 -224.677 946.242 -234.146C976.657 -238.536 1009.97 -240.696 1038.67 -226.339C1060.52 -215.42 1085.89 -199.098 1097.91 -176.144C1127.31 -119.999 1061.9 -75.3039 1024.63 -49.3292C1004.57 -35.3457 979.03 -21.7196 963.907 -1.29927C955.134 10.5404 950.654 26.2021 943.571 39.2057C922.104 78.6116 886.768 110.395 842.75 116.08C822.398 118.705 801.897 115.457 781.699 112.875C761.024 110.233 740.091 108.798 719.544 105.111C703.142 102.166 683.812 97.1805 677.771 78.6604C670.153 55.3221 675.788 23.766 679.276 0.384393Z" stroke="white"/>
<path fill-rule="evenodd" clip-rule="evenodd" d="M700.088 -8.81339C712.554 -62.6426 738.952 -115.15 783.329 -147.285C806.862 -164.325 834.181 -176.087 860.409 -187.709C890.139 -200.881 921.202 -211.105 952.928 -216.176C992.43 -222.494 1056.41 -228.188 1077.04 -180.698C1097.53 -133.561 1045.77 -91.8409 1015.16 -68.0661C995.531 -52.8357 974.527 -38.8569 955.777 -22.207C945.61 -13.1804 937.777 -2.75049 929.173 7.83654C905.393 37.1703 871.492 60.3925 836.937 72.7892C803.447 84.8066 762.017 90.1272 726.665 86.1557C711.412 84.449 700.509 78.6895 695.896 62.3159C689.504 39.5543 694.935 13.4226 700.088 -8.81339Z" stroke="white"/>
<path fill-rule="evenodd" clip-rule="evenodd" d="M720.768 -23.3114C733.152 -70.706 759.863 -113.995 798.826 -142.44C842.501 -174.328 898.74 -192.047 950.43 -201.057C977.906 -205.843 1037.45 -218.819 1051.45 -181.682C1065.46 -144.544 1024.97 -107.946 1001.67 -87.7991C973.388 -63.3842 942.897 -39.811 912.442 -17.9051C885.981 1.14123 857.747 20.6138 829.086 35.3221C812.922 43.666 796.083 50.4787 778.77 55.6795C765.95 59.4995 749.649 65.1972 736.208 62.3538C702.307 55.1723 714.845 -0.650117 720.768 -23.3114Z" stroke="white"/>
<path fill-rule="evenodd" clip-rule="evenodd" d="M746.295 -37.5037C773.467 -127.132 859.557 -171.213 942.447 -186.578C961.708 -190.145 1015.7 -203.004 1026.47 -175.624C1036.9 -149.078 1003.72 -117.596 988.188 -102.681C940.053 -56.4621 880.582 -22.1931 824.228 11.7566C806.638 22.3534 774.913 45.3491 753.093 34.7415C729.402 23.2031 740.666 -18.9188 746.295 -37.5037Z" stroke="white"/>
<path fill-rule="evenodd" clip-rule="evenodd" d="M774.127 -54.7548C797.757 -120.76 866.488 -158.616 929.679 -171.096C945.156 -174.149 984.464 -183.657 996.187 -165.238C1007.04 -148.199 981.147 -123.51 971.461 -113.699C949.899 -91.8531 924.345 -73.8562 899.099 -56.5577C875.757 -40.5532 852.162 -24.1481 827.601 -10.6126C814.665 -3.48744 790.402 11.7157 775.701 0.714032C759.874 -11.1215 768.88 -40.0984 774.127 -54.7548Z" stroke="white"/>
<path fill-rule="evenodd" clip-rule="evenodd" d="M14.3423 56.0993C13.6914 13.8133 -7.60414 -30.1339 2.91292 -73.2207C11.549 -108.608 55.0267 -111.562 81.1093 -127.595C101.836 -140.332 113.598 -162.895 124.807 -184.544C134.879 -203.98 143.925 -224 154.534 -243.117C161.402 -255.475 173.195 -279.743 188.089 -280.181C202.348 -280.603 215.422 -261.692 223.705 -250.514C234.504 -235.942 244.078 -220.407 254.564 -205.603C272.236 -180.632 293.439 -162.148 317.718 -144.655C345.346 -124.75 373.431 -105.525 401.972 -86.9806C422.986 -73.2856 444.143 -59.6935 464.341 -44.6459C477.011 -35.2039 504.975 -17.4886 505.103 -0.081852C505.164 8.22385 497.707 17.4223 492.679 24.0615C484.171 35.2999 474.474 45.5751 464.746 55.6285C446.629 74.3556 427.742 92.2331 409.06 110.327C384.813 133.81 361.651 156.909 340.335 183.569C318.297 211.164 297.242 239.669 275.757 267.784C261.206 286.83 246.671 308.219 225.683 319.907C199.395 334.516 177.818 319.111 151.233 318.933C128.364 318.776 130.051 262.849 127.144 247.298C124.228 231.558 117.801 216.905 115.31 201.127C112.204 181.431 112.163 161.281 111.4 141.375C110.472 117.026 110.103 93.8456 85.4452 84.5605C71.4122 79.2849 56.2312 78.1757 41.7062 75.0157C32.2962 72.965 14.5473 69.4588 14.3423 56.0993Z" stroke="white"/>
<path fill-rule="evenodd" clip-rule="evenodd" d="M25.5849 48.577C23.1878 13.1309 9.02576 -32.2375 22.4179 -68.827C33.8594 -100.095 69.6418 -104.148 93.7364 -120.574C113.627 -134.121 122.481 -156.291 132.424 -178.07C140.401 -195.541 148.136 -213.18 157.191 -230.093C163.864 -242.557 174.053 -263.599 187.928 -266.179C200.401 -268.498 213.778 -249.921 220.779 -240.471C230.994 -226.674 239.73 -211.69 248.754 -197.02C264.61 -171.253 280.846 -148.081 304.052 -129.152C327.362 -110.142 352.863 -95.9278 378.636 -81.1337C398.798 -69.5586 418.858 -57.6475 438.015 -44.2841C452.284 -34.3347 472.801 -21.5999 479.33 -3.85785C484.499 10.1775 458.285 33.4687 450.555 41.6894C434.642 58.5914 417.78 74.4585 400.887 90.2279C380.294 109.444 359.043 126.248 340.856 148.169C308.328 187.359 281.139 236.163 239.284 265.291C214.039 282.859 185.946 287.352 157.869 284.724C146.75 283.683 144.081 267.117 142.68 257.455C140.35 241.404 140.057 225.076 138.265 208.96C136.587 193.873 132.86 179.54 129.858 164.746C126.819 149.756 125.967 134.399 123.729 119.307C122.343 109.937 120.972 99.0339 114.91 91.5014C108.638 83.7034 98.2893 80.4357 89.2449 77.9537C72.2597 73.3367 27.2789 73.5914 25.5849 48.577Z" stroke="white"/>
<path fill-rule="evenodd" clip-rule="evenodd" d="M40.0547 33.7386C36.0233 1.20177 30.3792 -39.3232 46.8029 -69.3002C60.2273 -93.8111 88.8583 -99.0986 109.308 -115.069C126.317 -128.35 132.742 -149.473 141.185 -169.103C148.113 -185.203 155.077 -201.374 163.474 -216.696C169.842 -228.315 178.048 -244.07 190.692 -248.123C201.503 -251.587 213.715 -236.071 219.708 -228.348C229.913 -215.186 238.232 -200.438 246.496 -185.885C260.013 -162.073 272.451 -136.636 291.689 -117.267C310.383 -98.4708 332.589 -87.3762 355.211 -74.9016C372.539 -65.344 389.758 -55.4185 406.085 -44.0208C418.621 -35.275 434.156 -24.9111 440.688 -10.3582C446.337 2.19215 431.834 17.048 424.588 25.9021C412.622 40.5144 399.341 53.9199 386.246 67.3795C372.113 81.8999 356.459 95.2946 342.783 110.172C314.024 141.48 291.047 176.144 255.601 200.13C232.645 215.668 201.754 229.782 174.618 227.244C155.102 225.415 156.386 179.835 154.512 165.272C151.431 141.459 145.478 116.439 136.024 94.5044C127.904 75.7086 108.61 69.9123 90.8612 65.6964C79.7426 63.0499 68.09 61.6212 57.336 57.5297C44.8873 52.7888 41.7443 47.3768 40.0547 33.7386Z" stroke="white"/>
<path fill-rule="evenodd" clip-rule="evenodd" d="M53.5523 18.4875C51.152 -9.0208 51.6917 -41.5498 67.24 -65.3454C80.8661 -86.1884 105.127 -91.6759 122.382 -108.095C135.848 -120.905 141.137 -141.791 148.379 -158.731C157.23 -179.444 169.633 -217.699 191.961 -225.494C212.732 -232.74 234.453 -186.451 241.973 -172.648C253.877 -150.801 263.833 -126.843 278.271 -106.668C290.705 -89.2985 307.364 -79.6967 325.045 -69.3784C347.589 -56.1996 381.816 -40.5728 393.869 -14.8883C402.854 4.25028 373.638 32.703 363.661 45.9632C353.227 59.8151 345.368 76.2343 334.6 89.5976C317.607 110.685 290.073 127.663 267.339 140.619C245.237 153.223 216.535 167.172 191.463 166.342C174.984 165.799 171.848 138.942 168.333 125.823C163.296 107.173 156.598 90.4607 142.211 77.7758C127.568 64.863 110.308 58.7783 92.1637 53.4536C82.8501 50.7397 72.2258 48.6229 63.8939 43.1407C54.6883 37.1755 54.4775 29.0609 53.5523 18.4875Z" stroke="white"/>
<path fill-rule="evenodd" clip-rule="evenodd" d="M69.9981 2.6318C70.1313 -21.1333 75.2802 -46.4756 90.5476 -64.8071C103.264 -80.0762 123.168 -85.1803 135.341 -100.79C144.983 -113.148 149.891 -130.496 156.346 -144.847C164.241 -162.433 175.405 -193.155 195.037 -199.258C214.198 -205.2 231.146 -171.361 238.493 -157.972C249.252 -138.339 257.962 -117.528 268.818 -97.9487C277.322 -82.5878 287.723 -72.6875 301.571 -62.7871C317.827 -51.1584 340.508 -38.2766 349.192 -19.0377C355.453 -5.10808 340.298 17.1501 334.796 29.4216C331.107 37.6637 327.731 46.0356 325.876 54.9691C324.431 61.9258 324.288 68.364 320.102 74.3376C309.563 89.3637 286.457 91.3243 270.78 96.2772C249.959 102.85 227.867 110.32 206.078 111.746C192.686 112.637 185.851 99.6151 178.207 90.4547C169.175 79.6254 156.387 71.8369 145.218 63.665C130.479 52.8626 114.438 46.1436 97.8432 39.2625C90.3581 36.1568 81.5665 33.1106 75.7669 26.937C69.7112 20.5366 69.952 11.2088 69.9981 2.6318Z" stroke="white"/>
<path fill-rule="evenodd" clip-rule="evenodd" d="M87.2707 -11.4764C89.917 -31.4359 98.1636 -50.5125 112.093 -64.6223C122.77 -75.4551 136.951 -81.554 145.52 -94.5697C153.505 -106.702 159.07 -120.498 165.665 -133.47C172.645 -147.185 183.015 -170.107 199.113 -173.839C216.463 -177.858 229.828 -154.735 237.229 -141.92C246.578 -125.725 253.681 -108.3 262.04 -91.5473C268.338 -79.0606 276.371 -67.6406 285.873 -57.6676C295.837 -47.1544 309.351 -37.0852 314.392 -22.6288C318.849 -9.82443 310.51 5.6665 309.038 18.6496C307.464 32.5211 310.223 47.0913 301.494 59.0019C283.493 83.5654 238.316 79.0102 212.489 79.5356C187.005 80.0772 166.517 65.0467 145.895 50.7473C132.273 41.3065 118.088 33.3119 104.123 24.5156C89.8862 15.5406 84.9423 6.089 87.2707 -11.4764Z" stroke="white"/>
<path fill-rule="evenodd" clip-rule="evenodd" d="M103.319 -22.9005C111.145 -51.816 135.587 -67.1846 153.06 -89.0366C167.357 -106.926 178.077 -143.973 202.154 -148.873C229.491 -154.435 245.855 -105.348 255.359 -86.4074C265.905 -65.401 284.686 -48.3141 292.497 -26.0772C296.602 -14.4058 293.077 -3.51506 290.89 8.1509C288.494 20.9607 286.693 34.0578 278.421 44.3685C262.138 64.6593 230.337 64.5183 207.435 65.0767C183.727 65.6567 162.754 51.7519 143.864 37.8742C123.83 23.1779 95.3037 6.7523 103.319 -22.9005Z" stroke="white"/>
<path fill-rule="evenodd" clip-rule="evenodd" d="M116.426 -30.7413C125.244 -51.3428 143.774 -68.0912 158.81 -83.902C171.361 -97.083 184.862 -123.618 203.997 -125.509C226.487 -127.74 240.117 -99.4056 248.966 -82.0321C257.676 -64.9603 270.226 -46.9347 275.049 -28.1978C280.078 -8.67952 266.685 17.6072 253.913 31.4187C239.668 46.8199 216.361 52.5105 196.362 51.8962C175.423 51.2711 156.21 38.5427 140.352 25.3401C123.398 11.2268 106.17 -6.82574 116.426 -30.7413Z" stroke="white"/>
<path fill-rule="evenodd" clip-rule="evenodd" d="M128.588 -34.6197C137.011 -51.7546 151.612 -66.2497 165.074 -79.1791C175.463 -89.161 190.794 -106.134 205.783 -106.55C222.272 -107.008 236.247 -92.7618 242.802 -78.1588C249.264 -63.7555 256.073 -45.6975 257.041 -29.896C259.141 4.51413 216.374 43.0595 184.259 39.923C153.811 36.9484 111.793 -0.479513 128.588 -34.6197Z" stroke="white"/>
<path fill-rule="evenodd" clip-rule="evenodd" d="M139.836 -36.5092C151.457 -58.8346 179.682 -90.6625 205.814 -91.4184C235.808 -92.2823 243.337 -56.8639 239.428 -31.1965C235.456 -4.99987 200.875 32.9182 173.301 27.7944C146.389 22.7949 126.065 -10.0319 139.836 -36.5092Z" stroke="white"/>
<path fill-rule="evenodd" clip-rule="evenodd" d="M151.713 -40.1191C161.551 -58.8118 182.546 -82.1601 204.442 -82.8668C230.533 -83.703 230.041 -53.8001 224.124 -35.1884C217.972 -15.8645 190.877 17.1403 168.031 11.9291C145.817 6.84184 142.284 -22.2033 151.713 -40.1191Z" stroke="white"/>
<path fill-rule="evenodd" clip-rule="evenodd" d="M1050.47 719.821C1008.67 746.581 961.412 768.671 916.85 791.123C851.728 823.93 785.647 855.854 717.221 880.293C680.535 893.391 632.997 912.277 593.633 902.014C579.24 898.263 566.115 886.918 553.211 879.546C535.417 869.38 517.361 859.719 499.336 850.035C463.179 830.625 426.908 811.41 391.371 790.755C374.26 780.806 357.656 768.276 339.842 759.788C329.431 754.825 316.973 757.147 305.849 757.461C280.082 758.192 254.33 759.577 228.578 760.757C197.079 762.197 165.508 763.729 133.974 763.16C119.751 762.901 84.9168 765.564 77.087 752.638C72.8745 745.677 82.8028 733.125 87.4052 727.317C95.8559 716.643 105.569 707.025 115.153 697.504C137.319 675.485 160.86 654.516 180.562 629.92C190.686 617.276 203.949 601.828 197.34 584.567C190.67 567.132 179.115 552.036 172.065 534.661C163.948 514.666 160.582 493.86 156.75 472.658C153.912 456.988 147.304 443.104 141.09 428.658C134.225 412.69 127.113 396.587 122.347 379.748C119.196 368.625 114.112 348.614 125.133 341.572C140.793 331.558 170.157 339.666 188.007 342.616C212.677 346.687 237.167 351.872 261.769 356.338C279.63 359.585 297.553 363.147 315.711 363.526C344.983 364.137 374.352 362.021 403.547 360.051C457.607 356.403 511.279 351.455 565.52 351.455C613.042 351.455 722.86 409.464 748.566 419.678C799.875 440.068 852.549 459.397 901.103 486.525C914.238 493.87 934.454 503.657 941.366 518.775C945.629 528.09 943.669 533.476 953.726 539.478C967.446 547.668 985.025 550.883 1000.21 554.547C1024.67 560.447 1049.32 565.443 1073.89 570.786C1123.59 581.563 1172.95 593.752 1222.44 605.482C1237.4 609.027 1255.51 609.812 1269.77 616.058C1278.97 620.069 1278.01 625.119 1270.89 631.214C1258.41 641.909 1240.91 647.847 1226.17 653.947C1204.56 662.884 1182.6 670.857 1160.63 678.716C1138.66 686.575 1116.58 694.191 1094.6 702.067C1080.08 707.252 1063.52 711.469 1050.47 719.821Z" stroke="white"/>
<path fill-rule="evenodd" clip-rule="evenodd" d="M1016.07 713.934C971.853 740.749 922.771 762.111 875.453 782.953C814.895 809.644 752.967 834.659 689.161 851.344C651.697 861.133 607.495 871.942 569.215 860.716C555.559 856.71 545.356 847.707 533.65 839.76C520.307 830.692 506.45 822.382 492.594 814.202C464.07 797.366 435.245 781.105 406.119 765.418C390.692 757.076 373.71 745.904 356.282 743.01C342.425 740.706 326.685 744.04 312.767 745.01C287.702 746.755 262.643 748.555 237.568 750.083C208.633 751.845 179.617 753.471 150.621 753.189C134.46 753.032 106.716 755.629 95.2874 744.609C85.3158 734.993 121.62 700.215 128.004 693.607C147.942 672.977 168.911 653.333 187.469 631.272C198.436 618.262 211.79 602.44 216.414 585.197C220.35 570.502 212.754 553.758 208.269 540.175C202.66 523.16 198.133 505.522 191.616 488.864C185.811 474.023 176.574 460.802 168.46 447.311C159.535 432.47 150.498 417.384 143.872 401.193C139.813 391.23 133.095 374.546 141.163 365.049C150.482 354.1 179.211 361.255 191.02 362.816C214.977 366.025 238.748 370.795 262.54 375.067C302.057 382.157 339.731 388.358 379.971 386.872C432.374 384.932 484.726 380.368 537.119 377.842C556.467 376.899 576.123 375.001 595.486 376.026C606.586 376.617 615.039 380.194 621.495 388.265C630.312 399.28 650.619 405.378 664.742 411.698C686.764 421.547 709.063 430.708 731.3 439.988C780.116 460.369 829.871 480.013 876.167 506.373C890.813 514.709 907.585 524.005 918.419 537.779C924.464 545.46 922.94 552.859 926.63 561.022C931.516 571.76 947.579 576.606 957.181 580.118C975.713 586.905 995.004 591.453 1014.15 595.713C1057.46 605.351 1100.88 611.687 1144.9 616.354C1155.21 617.439 1195.83 621.195 1174.5 639.299C1150.93 659.306 1116.89 669.112 1089.14 680.387C1064.14 690.523 1039.12 699.955 1016.07 713.934Z" stroke="white"/>
<path fill-rule="evenodd" clip-rule="evenodd" d="M954.964 708.975C913.401 732.566 867.359 750.166 822.595 767.003C768.276 787.433 712.595 805.644 655.625 815.846C619.837 822.248 580.38 827.168 544.833 816.528C520.558 809.265 501.781 789.63 480.46 776.122C459.139 762.613 436.955 749.933 414.108 739.364C399.929 732.804 384.675 726.196 368.898 727.062C330.536 729.162 292.22 734.168 253.817 736.598C228.411 738.222 202.955 739.558 177.473 739.158C162.106 738.92 140.996 739.894 127.392 731.365C112.354 721.932 192.423 641.39 199.991 632.325C218.964 609.595 241.939 579.428 238.27 547.102C234.762 516.2 219.554 493.129 202.354 468.915C192.592 455.142 161.289 418.346 172.89 400.432C179.517 390.193 201.362 393.737 211.74 394.436C232.193 395.81 252.532 398.765 272.877 401.33C302.541 405.048 333.022 410.791 362.815 412.474C383.561 413.643 404.429 412.079 425.211 412.046C455.008 412.003 484.806 412.241 514.604 412.522C539.624 412.761 564.854 412.522 589.787 415.055C605.287 416.614 617.052 420.115 628.17 430.009C637.844 438.614 652.439 443.652 664.77 449.124C685.135 458.156 705.767 466.529 726.333 475.036C769.391 492.853 812.942 510.296 854.155 532.56C872.969 542.719 904.601 556.941 909.014 581.571C910.607 590.453 911.778 594.29 919.998 599.339C931.665 606.505 945.64 609.735 958.73 612.544C989.247 619.093 1020.65 618.113 1051.11 624.586C1063.52 627.254 1079.72 633.012 1065.56 646.196C1049.03 661.615 1024.97 670.09 1005.17 679.615C995.284 684.367 985.101 688.816 975.715 694.617C968.507 699.088 962.337 704.819 954.964 708.975Z" stroke="white"/>
</g>
<defs>
<linearGradient id="paint0_linear_471_37393" x1="1352.5" y1="720" x2="-136.252" y2="720" gradientUnits="userSpaceOnUse">
<stop offset="0.0934268" stop-color="white"/>
<stop offset="1" stop-color="white" stop-opacity="0"/>
</linearGradient>
</defs>
</svg>
